<svg width="71" height="38" viewBox="0 0 71 38" fill="none" xmlns="http://www.w3.org/2000/svg">
<path d="M1.15532 1.15535C1.79338 0.517282 2.82789 0.517282 3.46596 1.15535L36.0753 33.7647C37.0324 34.7218 37.0324 36.2735 36.0753 37.2306V37.2306C35.7562 37.5496 35.239 37.5496 34.9199 37.2306L1.15532 3.46599C0.517256 2.82792 0.517254 1.79341 1.15532 1.15535V1.15535Z" fill="#686868"/>
<path d="M69.8388 1.16115C70.4801 1.80243 70.4801 2.84216 69.8388 3.48344L36.2222 37.1001C35.8316 37.4906 35.1985 37.4906 34.8079 37.1001L33.1928 35.4849L67.5165 1.16115C68.1578 0.519864 69.1975 0.519863 69.8388 1.16115V1.16115Z" fill="#686868"/>
</svg>
