<svg width="251" height="152" viewBox="0 0 251 152" fill="none" xmlns="http://www.w3.org/2000/svg">
<g filter="url(#filter0_d_81_14)">
<path d="M176 4H3V5L63 45H172.955C174.981 45 177.002 45.1878 178.992 45.5611L179.942 45.7391C182.631 46.2433 185.231 47.1627 187.64 48.46C189.537 49.4816 191.306 50.7329 192.901 52.1824L193.773 52.9752C195.248 54.3167 196.504 55.8819 197.493 57.6134C199.136 60.488 200 63.7415 200 67.0522V70.6932C200 75.4697 198.668 80.1515 196.154 84.2127C194.401 87.0439 192.115 89.5073 189.422 91.4657L186.247 93.7747C183.755 95.5869 181.087 97.1424 178.282 98.4174L177.348 98.8419C173.462 100.608 169.387 101.923 165.201 102.76L164.78 102.844C160.936 103.613 157.026 104 153.105 104H97L110 53H68L45 144H155.353C160.443 144 165.527 143.611 170.558 142.837L176 142L182.596 140.417C186.526 139.474 190.374 138.219 194.105 136.665C198.359 134.892 202.444 132.736 206.309 130.224L210.5 127.5L213.984 125.041C217.32 122.686 220.412 120.005 223.216 117.036C226.065 114.02 228.6 110.722 230.784 107.195L234 102L235.01 100.255C237.981 95.1229 240.052 89.5199 241.132 83.689C241.709 80.5695 242 77.4038 242 74.2313V64.1511C242 60.3955 241.58 56.6517 240.748 52.9895C239.918 49.3412 238.685 45.7967 237.071 42.4215L235.749 39.6574C234.585 37.2228 233.235 34.8814 231.711 32.654C228.918 28.5718 225.562 24.9042 221.744 21.7597L219 19.5L210.5 14L206.343 11.9215C202.456 9.97777 198.401 8.38782 194.229 7.17087C190.416 6.05884 186.518 5.2622 182.575 4.78901L176 4Z" fill="#191919" fill-opacity="0.65" shape-rendering="crispEdges"/>
<path d="M176.06 3L176.119 3.00684L182.694 3.7959C186.692 4.27562 190.643 5.08356 194.509 6.21094C198.739 7.44468 202.849 9.05682 206.79 11.0273L210.947 13.1055L210.997 13.1299L211.043 13.1602L219.543 18.6602L219.592 18.6914L219.636 18.7285L222.38 20.9883C226.271 24.1924 229.69 27.9292 232.536 32.0889C234.089 34.3585 235.465 36.7447 236.651 39.2256L237.974 41.9902C239.62 45.4322 240.877 49.0471 241.723 52.7676C242.572 56.5025 243 60.3212 243 64.1514V74.2314C243 77.4649 242.704 80.6917 242.115 83.8711C241.015 89.8142 238.904 95.525 235.876 100.756L234.865 102.501L234.858 102.514L234.851 102.526L231.635 107.721C229.415 111.306 226.838 114.657 223.942 117.723C221.093 120.739 217.95 123.465 214.561 125.857L211.077 128.317L211.062 128.328L211.045 128.339L206.854 131.062C202.938 133.607 198.8 135.792 194.489 137.588C190.71 139.163 186.811 140.434 182.829 141.39L176.233 142.973L176.193 142.982L176.152 142.988L170.711 143.825C165.629 144.607 160.494 145 155.353 145H43.7158L44.0303 143.755L67.0303 52.7549L67.2217 52H111.287L110.969 53.2471L98.2871 103H153.105C156.96 103 160.805 102.619 164.584 101.863L165.005 101.779C169.115 100.957 173.118 99.6661 176.934 97.9316L177.868 97.5068C180.612 96.2598 183.222 94.7383 185.659 92.9658L188.834 90.6572C191.422 88.775 193.619 86.4074 195.304 83.6865C197.72 79.7834 199 75.2838 199 70.6934V67.0518C199 63.9152 198.181 60.8327 196.625 58.1094C195.688 56.469 194.498 54.9858 193.1 53.7148L192.228 52.9219C190.694 51.5275 188.991 50.3238 187.166 49.3408C184.847 48.0924 182.346 47.2069 179.758 46.7217L178.808 46.5439C176.878 46.1822 174.918 46 172.955 46H62.6973L2 5.53516V3H176.06Z" stroke="#EAA200" stroke-width="2" shape-rendering="crispEdges"/>
</g>
<defs>
<filter id="filter0_d_81_14" x="0" y="0" width="251" height="152" filterUnits="userSpaceOnUse" color-interpolation-filters="sRGB">
<feFlood flood-opacity="0" result="BackgroundImageFix"/>
<feColorMatrix in="SourceAlpha" type="matrix" values="0 0 0 0 0 0 0 0 0 0 0 0 0 0 0 0 0 0 127 0" result="hardAlpha"/>
<feOffset dx="3" dy="2"/>
<feGaussianBlur stdDeviation="2"/>
<feComposite in2="hardAlpha" operator="out"/>
<feColorMatrix type="matrix" values="0 0 0 0 0.94902 0 0 0 0 0.717647 0 0 0 0 0.0196078 0 0 0 0.7 0"/>
<feBlend mode="normal" in2="BackgroundImageFix" result="effect1_dropShadow_81_14"/>
<feBlend mode="normal" in="SourceGraphic" in2="effect1_dropShadow_81_14" result="shape"/>
</filter>
</defs>
</svg>
