<svg width="374" height="100" viewBox="0 0 374 100" fill="none" xmlns="http://www.w3.org/2000/svg">
<path d="M59.9693 51.328C59.9693 50 60.2413 48.824 60.7853 47.8C61.3453 46.776 62.0973 45.984 63.0413 45.424C64.0013 44.848 65.0653 44.56 66.2333 44.56C67.0973 44.56 67.9453 44.752 68.7773 45.136C69.6253 45.504 70.2973 46 70.7933 46.624V40.24H73.5533V58H70.7933V56.008C70.3453 56.648 69.7213 57.176 68.9213 57.592C68.1373 58.008 67.2333 58.216 66.2093 58.216C65.0573 58.216 64.0013 57.928 63.0413 57.352C62.0973 56.76 61.3453 55.944 60.7853 54.904C60.2413 53.848 59.9693 52.656 59.9693 51.328ZM70.7933 51.376C70.7933 50.464 70.6013 49.672 70.2173 49C69.8493 48.328 69.3613 47.816 68.7533 47.464C68.1453 47.112 67.4893 46.936 66.7853 46.936C66.0813 46.936 65.4253 47.112 64.8173 47.464C64.2093 47.8 63.7133 48.304 63.3293 48.976C62.9613 49.632 62.7773 50.416 62.7773 51.328C62.7773 52.24 62.9613 53.04 63.3293 53.728C63.7133 54.416 64.2093 54.944 64.8173 55.312C65.4413 55.664 66.0973 55.84 66.7853 55.84C67.4893 55.84 68.1453 55.664 68.7533 55.312C69.3613 54.96 69.8493 54.448 70.2173 53.776C70.6013 53.088 70.7933 52.288 70.7933 51.376ZM77.3389 43.024C76.8429 43.024 76.4269 42.856 76.0909 42.52C75.7549 42.184 75.5869 41.768 75.5869 41.272C75.5869 40.776 75.7549 40.36 76.0909 40.024C76.4269 39.688 76.8429 39.52 77.3389 39.52C77.8189 39.52 78.2269 39.688 78.5629 40.024C78.8989 40.36 79.0669 40.776 79.0669 41.272C79.0669 41.768 78.8989 42.184 78.5629 42.52C78.2269 42.856 77.8189 43.024 77.3389 43.024ZM78.6829 60.592C78.6829 61.888 78.3549 62.824 77.6989 63.4C77.0589 63.992 76.1229 64.288 74.8909 64.288H73.4749V61.984H74.4109C74.9709 61.984 75.3629 61.872 75.5869 61.648C75.8269 61.44 75.9469 61.088 75.9469 60.592V44.776H78.6829V60.592ZM80.163 51.328C80.163 50 80.435 48.824 80.979 47.8C81.539 46.776 82.291 45.984 83.235 45.424C84.195 44.848 85.259 44.56 86.427 44.56C87.291 44.56 88.139 44.752 88.971 45.136C89.819 45.504 90.491 46 90.987 46.624V40.24H93.747V58H90.987V56.008C90.539 56.648 89.915 57.176 89.115 57.592C88.331 58.008 87.427 58.216 86.403 58.216C85.251 58.216 84.195 57.928 83.235 57.352C82.291 56.76 81.539 55.944 80.979 54.904C80.435 53.848 80.163 52.656 80.163 51.328ZM90.987 51.376C90.987 50.464 90.795 49.672 90.411 49C90.043 48.328 89.555 47.816 88.947 47.464C88.339 47.112 87.683 46.936 86.979 46.936C86.275 46.936 85.619 47.112 85.011 47.464C84.403 47.8 83.907 48.304 83.523 48.976C83.155 49.632 82.971 50.416 82.971 51.328C82.971 52.24 83.155 53.04 83.523 53.728C83.907 54.416 84.403 54.944 85.011 55.312C85.635 55.664 86.291 55.84 86.979 55.84C87.683 55.84 88.339 55.664 88.947 55.312C89.555 54.96 90.043 54.448 90.411 53.776C90.795 53.088 90.987 52.288 90.987 51.376ZM101.877 58.216C100.629 58.216 99.5006 57.936 98.4926 57.376C97.4846 56.8 96.6926 56 96.1166 54.976C95.5406 53.936 95.2526 52.736 95.2526 51.376C95.2526 50.032 95.5486 48.84 96.1406 47.8C96.7326 46.76 97.5406 45.96 98.5646 45.4C99.5886 44.84 100.733 44.56 101.997 44.56C103.261 44.56 104.405 44.84 105.429 45.4C106.453 45.96 107.261 46.76 107.853 47.8C108.445 48.84 108.741 50.032 108.741 51.376C108.741 52.72 108.437 53.912 107.829 54.952C107.221 55.992 106.389 56.8 105.333 57.376C104.293 57.936 103.141 58.216 101.877 58.216ZM101.877 55.84C102.581 55.84 103.237 55.672 103.845 55.336C104.469 55 104.973 54.496 105.357 53.824C105.741 53.152 105.933 52.336 105.933 51.376C105.933 50.416 105.749 49.608 105.381 48.952C105.013 48.28 104.525 47.776 103.917 47.44C103.309 47.104 102.653 46.936 101.949 46.936C101.245 46.936 100.589 47.104 99.9806 47.44C99.3886 47.776 98.9166 48.28 98.5646 48.952C98.2126 49.608 98.0366 50.416 98.0366 51.376C98.0366 52.8 98.3966 53.904 99.1166 54.688C99.8526 55.456 100.773 55.84 101.877 55.84ZM115.573 44.56C116.597 44.56 117.501 44.768 118.285 45.184C119.085 45.584 119.709 46.088 120.157 46.696V44.776H122.917V58.216C122.917 59.432 122.661 60.512 122.149 61.456C121.637 62.416 120.893 63.168 119.917 63.712C118.957 64.256 117.805 64.528 116.461 64.528C114.669 64.528 113.181 64.104 111.997 63.256C110.813 62.424 110.141 61.288 109.981 59.848H112.693C112.901 60.536 113.341 61.088 114.013 61.504C114.701 61.936 115.517 62.152 116.461 62.152C117.565 62.152 118.453 61.816 119.125 61.144C119.813 60.472 120.157 59.496 120.157 58.216V56.008C119.693 56.632 119.061 57.16 118.261 57.592C117.477 58.008 116.581 58.216 115.573 58.216C114.421 58.216 113.365 57.928 112.405 57.352C111.461 56.76 110.709 55.944 110.149 54.904C109.605 53.848 109.333 52.656 109.333 51.328C109.333 50 109.605 48.824 110.149 47.8C110.709 46.776 111.461 45.984 112.405 45.424C113.365 44.848 114.421 44.56 115.573 44.56ZM120.157 51.376C120.157 50.464 119.965 49.672 119.581 49C119.213 48.328 118.725 47.816 118.117 47.464C117.509 47.112 116.853 46.936 116.149 46.936C115.445 46.936 114.789 47.112 114.181 47.464C113.573 47.8 113.077 48.304 112.693 48.976C112.325 49.632 112.141 50.416 112.141 51.328C112.141 52.24 112.325 53.04 112.693 53.728C113.077 54.416 113.573 54.944 114.181 55.312C114.805 55.664 115.461 55.84 116.149 55.84C116.853 55.84 117.509 55.664 118.117 55.312C118.725 54.96 119.213 54.448 119.581 53.776C119.965 53.088 120.157 52.288 120.157 51.376ZM126.703 43.024C126.207 43.024 125.791 42.856 125.455 42.52C125.119 42.184 124.951 41.768 124.951 41.272C124.951 40.776 125.119 40.36 125.455 40.024C125.791 39.688 126.207 39.52 126.703 39.52C127.183 39.52 127.591 39.688 127.927 40.024C128.263 40.36 128.431 40.776 128.431 41.272C128.431 41.768 128.263 42.184 127.927 42.52C127.591 42.856 127.183 43.024 126.703 43.024ZM128.047 44.776V58H125.311V44.776H128.047ZM142.559 51.064C142.559 51.56 142.527 52.008 142.463 52.408H132.359C132.439 53.464 132.831 54.312 133.535 54.952C134.239 55.592 135.103 55.912 136.127 55.912C137.599 55.912 138.639 55.296 139.247 54.064H142.199C141.799 55.28 141.071 56.28 140.015 57.064C138.975 57.832 137.679 58.216 136.127 58.216C134.863 58.216 133.727 57.936 132.719 57.376C131.727 56.8 130.943 56 130.367 54.976C129.807 53.936 129.527 52.736 129.527 51.376C129.527 50.016 129.799 48.824 130.343 47.8C130.903 46.76 131.679 45.96 132.671 45.4C133.679 44.84 134.831 44.56 136.127 44.56C137.375 44.56 138.487 44.832 139.463 45.376C140.439 45.92 141.199 46.688 141.743 47.68C142.287 48.656 142.559 49.784 142.559 51.064ZM139.703 50.2C139.687 49.192 139.327 48.384 138.623 47.776C137.919 47.168 137.047 46.864 136.007 46.864C135.063 46.864 134.255 47.168 133.583 47.776C132.911 48.368 132.511 49.176 132.383 50.2H139.703ZM143.14 51.376C143.14 50.016 143.412 48.824 143.956 47.8C144.516 46.76 145.284 45.96 146.26 45.4C147.236 44.84 148.356 44.56 149.62 44.56C151.22 44.56 152.54 44.944 153.58 45.712C154.636 46.464 155.348 47.544 155.716 48.952H152.764C152.524 48.296 152.14 47.784 151.612 47.416C151.084 47.048 150.42 46.864 149.62 46.864C148.5 46.864 147.604 47.264 146.932 48.064C146.276 48.848 145.948 49.952 145.948 51.376C145.948 52.8 146.276 53.912 146.932 54.712C147.604 55.512 148.5 55.912 149.62 55.912C151.204 55.912 152.252 55.216 152.764 53.824H155.716C155.332 55.168 154.612 56.24 153.556 57.04C152.5 57.824 151.188 58.216 149.62 58.216C148.356 58.216 147.236 57.936 146.26 57.376C145.284 56.8 144.516 56 143.956 54.976C143.412 53.936 143.14 52.736 143.14 51.376ZM162.978 58.216C161.73 58.216 160.602 57.936 159.594 57.376C158.586 56.8 157.794 56 157.218 54.976C156.642 53.936 156.354 52.736 156.354 51.376C156.354 50.032 156.65 48.84 157.242 47.8C157.834 46.76 158.642 45.96 159.666 45.4C160.69 44.84 161.834 44.56 163.098 44.56C164.362 44.56 165.506 44.84 166.53 45.4C167.554 45.96 168.362 46.76 168.954 47.8C169.546 48.84 169.842 50.032 169.842 51.376C169.842 52.72 169.538 53.912 168.93 54.952C168.322 55.992 167.49 56.8 166.434 57.376C165.394 57.936 164.242 58.216 162.978 58.216ZM162.978 55.84C163.682 55.84 164.338 55.672 164.946 55.336C165.57 55 166.074 54.496 166.458 53.824C166.842 53.152 167.034 52.336 167.034 51.376C167.034 50.416 166.85 49.608 166.482 48.952C166.114 48.28 165.626 47.776 165.018 47.44C164.41 47.104 163.754 46.936 163.05 46.936C162.346 46.936 161.69 47.104 161.082 47.44C160.49 47.776 160.018 48.28 159.666 48.952C159.314 49.608 159.138 50.416 159.138 51.376C159.138 52.8 159.498 53.904 160.218 54.688C160.954 55.456 161.874 55.84 162.978 55.84ZM178.019 44.56C179.059 44.56 179.987 44.776 180.803 45.208C181.635 45.64 182.283 46.28 182.747 47.128C183.211 47.976 183.443 49 183.443 50.2V58H180.731V50.608C180.731 49.424 180.435 48.52 179.843 47.896C179.251 47.256 178.443 46.936 177.419 46.936C176.395 46.936 175.579 47.256 174.971 47.896C174.379 48.52 174.083 49.424 174.083 50.608V58H171.347V44.776H174.083V46.288C174.531 45.744 175.099 45.32 175.787 45.016C176.491 44.712 177.235 44.56 178.019 44.56ZM188.925 47.008V54.328C188.925 54.824 189.037 55.184 189.261 55.408C189.501 55.616 189.901 55.72 190.461 55.72H192.141V58H189.981C188.749 58 187.805 57.712 187.149 57.136C186.493 56.56 186.165 55.624 186.165 54.328V47.008H184.605V44.776H186.165V41.488H188.925V44.776H192.141V47.008H188.925ZM192.551 51.328C192.551 50 192.823 48.824 193.367 47.8C193.927 46.776 194.679 45.984 195.623 45.424C196.583 44.848 197.639 44.56 198.791 44.56C199.831 44.56 200.735 44.768 201.503 45.184C202.287 45.584 202.911 46.088 203.375 46.696V44.776H206.135V58H203.375V56.032C202.911 56.656 202.279 57.176 201.479 57.592C200.679 58.008 199.767 58.216 198.743 58.216C197.607 58.216 196.567 57.928 195.623 57.352C194.679 56.76 193.927 55.944 193.367 54.904C192.823 53.848 192.551 52.656 192.551 51.328ZM203.375 51.376C203.375 50.464 203.183 49.672 202.799 49C202.431 48.328 201.943 47.816 201.335 47.464C200.727 47.112 200.071 46.936 199.367 46.936C198.663 46.936 198.007 47.112 197.399 47.464C196.791 47.8 196.295 48.304 195.911 48.976C195.543 49.632 195.359 50.416 195.359 51.328C195.359 52.24 195.543 53.04 195.911 53.728C196.295 54.416 196.791 54.944 197.399 55.312C198.023 55.664 198.679 55.84 199.367 55.84C200.071 55.84 200.727 55.664 201.335 55.312C201.943 54.96 202.431 54.448 202.799 53.776C203.183 53.088 203.375 52.288 203.375 51.376ZM211.72 47.008V54.328C211.72 54.824 211.832 55.184 212.056 55.408C212.296 55.616 212.696 55.72 213.256 55.72H214.936V58H212.776C211.544 58 210.6 57.712 209.944 57.136C209.288 56.56 208.96 55.624 208.96 54.328V47.008H207.4V44.776H208.96V41.488H211.72V44.776H214.936V47.008H211.72ZM221.994 58.216C220.746 58.216 219.618 57.936 218.61 57.376C217.602 56.8 216.81 56 216.234 54.976C215.658 53.936 215.37 52.736 215.37 51.376C215.37 50.032 215.666 48.84 216.258 47.8C216.85 46.76 217.658 45.96 218.682 45.4C219.706 44.84 220.85 44.56 222.114 44.56C223.378 44.56 224.522 44.84 225.546 45.4C226.57 45.96 227.378 46.76 227.97 47.8C228.562 48.84 228.858 50.032 228.858 51.376C228.858 52.72 228.554 53.912 227.946 54.952C227.338 55.992 226.506 56.8 225.45 57.376C224.41 57.936 223.258 58.216 221.994 58.216ZM221.994 55.84C222.698 55.84 223.354 55.672 223.962 55.336C224.586 55 225.09 54.496 225.474 53.824C225.858 53.152 226.05 52.336 226.05 51.376C226.05 50.416 225.866 49.608 225.498 48.952C225.13 48.28 224.642 47.776 224.034 47.44C223.426 47.104 222.77 46.936 222.066 46.936C221.362 46.936 220.706 47.104 220.098 47.44C219.506 47.776 219.034 48.28 218.682 48.952C218.33 49.608 218.154 50.416 218.154 51.376C218.154 52.8 218.514 53.904 219.234 54.688C219.97 55.456 220.89 55.84 221.994 55.84ZM242.674 42.496C244.499 42.496 246.075 42.832 247.403 43.504C248.731 44.176 249.739 45.12 250.427 46.336C251.131 47.536 251.483 48.936 251.483 50.536C251.483 51.816 251.259 53.04 250.811 54.208C250.379 55.376 249.747 56.328 248.915 57.064C248.099 57.8 247.131 58.168 246.011 58.168C245.195 58.168 244.555 57.992 244.091 57.64C243.627 57.272 243.339 56.76 243.227 56.104C242.731 56.744 242.107 57.248 241.355 57.616C240.603 57.984 239.819 58.168 239.003 58.168C237.771 58.168 236.803 57.8 236.099 57.064C235.411 56.312 235.067 55.296 235.067 54.016C235.067 52.8 235.315 51.664 235.811 50.608C236.323 49.552 237.035 48.712 237.947 48.088C238.859 47.448 239.883 47.128 241.019 47.128C242.411 47.128 243.387 47.6 243.947 48.544L244.163 47.344H246.539L245.339 54.208C245.291 54.544 245.267 54.84 245.267 55.096C245.267 55.512 245.347 55.824 245.507 56.032C245.683 56.24 245.987 56.344 246.419 56.344C247.027 56.344 247.547 56.048 247.979 55.456C248.411 54.848 248.731 54.104 248.939 53.224C249.163 52.344 249.275 51.488 249.275 50.656C249.275 48.624 248.683 47.072 247.499 46C246.315 44.928 244.595 44.392 242.339 44.392C240.451 44.392 238.755 44.84 237.251 45.736C235.763 46.632 234.595 47.864 233.747 49.432C232.899 51 232.475 52.744 232.475 54.664C232.475 56.712 233.083 58.272 234.299 59.344C235.515 60.416 237.251 60.952 239.507 60.952C241.027 60.952 242.355 60.672 243.491 60.112L243.851 61.936C242.395 62.56 240.763 62.872 238.955 62.872C237.211 62.872 235.683 62.544 234.371 61.888C233.059 61.232 232.043 60.296 231.323 59.08C230.603 57.88 230.243 56.48 230.243 54.88C230.243 52.592 230.771 50.504 231.827 48.616C232.899 46.728 234.379 45.24 236.267 44.152C238.155 43.048 240.291 42.496 242.674 42.496ZM239.843 56.056C240.515 56.056 241.123 55.864 241.667 55.48C242.227 55.08 242.667 54.56 242.987 53.92C243.307 53.264 243.467 52.568 243.467 51.832C243.467 51.064 243.251 50.44 242.819 49.96C242.403 49.464 241.811 49.216 241.043 49.216C240.355 49.216 239.747 49.432 239.219 49.864C238.707 50.28 238.307 50.824 238.019 51.496C237.747 52.168 237.611 52.872 237.611 53.608C237.611 54.36 237.795 54.96 238.163 55.408C238.531 55.84 239.091 56.056 239.843 56.056ZM259.1 44.56C260.124 44.56 261.028 44.768 261.812 45.184C262.612 45.584 263.236 46.088 263.684 46.696V44.776H266.444V58.216C266.444 59.432 266.188 60.512 265.676 61.456C265.164 62.416 264.42 63.168 263.444 63.712C262.484 64.256 261.332 64.528 259.988 64.528C258.196 64.528 256.708 64.104 255.524 63.256C254.34 62.424 253.668 61.288 253.508 59.848H256.22C256.428 60.536 256.868 61.088 257.54 61.504C258.228 61.936 259.044 62.152 259.988 62.152C261.092 62.152 261.98 61.816 262.652 61.144C263.34 60.472 263.684 59.496 263.684 58.216V56.008C263.22 56.632 262.588 57.16 261.788 57.592C261.004 58.008 260.108 58.216 259.1 58.216C257.948 58.216 256.892 57.928 255.932 57.352C254.988 56.76 254.236 55.944 253.676 54.904C253.132 53.848 252.86 52.656 252.86 51.328C252.86 50 253.132 48.824 253.676 47.8C254.236 46.776 254.988 45.984 255.932 45.424C256.892 44.848 257.948 44.56 259.1 44.56ZM263.684 51.376C263.684 50.464 263.492 49.672 263.108 49C262.74 48.328 262.252 47.816 261.644 47.464C261.036 47.112 260.38 46.936 259.676 46.936C258.972 46.936 258.316 47.112 257.708 47.464C257.1 47.8 256.604 48.304 256.22 48.976C255.852 49.632 255.668 50.416 255.668 51.328C255.668 52.24 255.852 53.04 256.22 53.728C256.604 54.416 257.1 54.944 257.708 55.312C258.332 55.664 258.988 55.84 259.676 55.84C260.38 55.84 261.036 55.664 261.644 55.312C262.252 54.96 262.74 54.448 263.108 53.776C263.492 53.088 263.684 52.288 263.684 51.376ZM284.846 44.56C285.886 44.56 286.814 44.776 287.63 45.208C288.462 45.64 289.11 46.28 289.574 47.128C290.054 47.976 290.294 49 290.294 50.2V58H287.582V50.608C287.582 49.424 287.286 48.52 286.694 47.896C286.102 47.256 285.294 46.936 284.27 46.936C283.246 46.936 282.43 47.256 281.822 47.896C281.23 48.52 280.934 49.424 280.934 50.608V58H278.222V50.608C278.222 49.424 277.926 48.52 277.334 47.896C276.742 47.256 275.934 46.936 274.91 46.936C273.886 46.936 273.07 47.256 272.462 47.896C271.87 48.52 271.574 49.424 271.574 50.608V58H268.838V44.776H271.574V46.288C272.022 45.744 272.59 45.32 273.278 45.016C273.966 44.712 274.702 44.56 275.486 44.56C276.542 44.56 277.486 44.784 278.318 45.232C279.15 45.68 279.79 46.328 280.238 47.176C280.638 46.376 281.262 45.744 282.11 45.28C282.958 44.8 283.87 44.56 284.846 44.56ZM291.663 51.328C291.663 50 291.935 48.824 292.479 47.8C293.039 46.776 293.791 45.984 294.735 45.424C295.695 44.848 296.751 44.56 297.903 44.56C298.943 44.56 299.847 44.768 300.615 45.184C301.399 45.584 302.023 46.088 302.487 46.696V44.776H305.247V58H302.487V56.032C302.023 56.656 301.391 57.176 300.591 57.592C299.791 58.008 298.879 58.216 297.855 58.216C296.719 58.216 295.679 57.928 294.735 57.352C293.791 56.76 293.039 55.944 292.479 54.904C291.935 53.848 291.663 52.656 291.663 51.328ZM302.487 51.376C302.487 50.464 302.295 49.672 301.911 49C301.543 48.328 301.055 47.816 300.447 47.464C299.839 47.112 299.183 46.936 298.479 46.936C297.775 46.936 297.119 47.112 296.511 47.464C295.903 47.8 295.407 48.304 295.023 48.976C294.655 49.632 294.471 50.416 294.471 51.328C294.471 52.24 294.655 53.04 295.023 53.728C295.407 54.416 295.903 54.944 296.511 55.312C297.135 55.664 297.791 55.84 298.479 55.84C299.183 55.84 299.839 55.664 300.447 55.312C301.055 54.96 301.543 54.448 301.911 53.776C302.295 53.088 302.487 52.288 302.487 51.376ZM309.033 43.024C308.537 43.024 308.121 42.856 307.785 42.52C307.449 42.184 307.281 41.768 307.281 41.272C307.281 40.776 307.449 40.36 307.785 40.024C308.121 39.688 308.537 39.52 309.033 39.52C309.513 39.52 309.921 39.688 310.257 40.024C310.593 40.36 310.761 40.776 310.761 41.272C310.761 41.768 310.593 42.184 310.257 42.52C309.921 42.856 309.513 43.024 309.033 43.024ZM310.377 44.776V58H307.641V44.776H310.377ZM315.505 40.24V58H312.769V40.24H315.505ZM319.001 58.168C318.505 58.168 318.089 58 317.753 57.664C317.417 57.328 317.249 56.912 317.249 56.416C317.249 55.92 317.417 55.504 317.753 55.168C318.089 54.832 318.505 54.664 319.001 54.664C319.481 54.664 319.889 54.832 320.225 55.168C320.561 55.504 320.729 55.92 320.729 56.416C320.729 56.912 320.561 57.328 320.225 57.664C319.889 58 319.481 58.168 319.001 58.168ZM321.574 51.376C321.574 50.016 321.846 48.824 322.39 47.8C322.95 46.76 323.718 45.96 324.694 45.4C325.67 44.84 326.79 44.56 328.054 44.56C329.654 44.56 330.974 44.944 332.014 45.712C333.07 46.464 333.782 47.544 334.15 48.952H331.198C330.958 48.296 330.574 47.784 330.046 47.416C329.518 47.048 328.854 46.864 328.054 46.864C326.934 46.864 326.038 47.264 325.366 48.064C324.71 48.848 324.382 49.952 324.382 51.376C324.382 52.8 324.71 53.912 325.366 54.712C326.038 55.512 326.934 55.912 328.054 55.912C329.638 55.912 330.686 55.216 331.198 53.824H334.15C333.766 55.168 333.046 56.24 331.99 57.04C330.934 57.824 329.622 58.216 328.054 58.216C326.79 58.216 325.67 57.936 324.694 57.376C323.718 56.8 322.95 56 322.39 54.976C321.846 53.936 321.574 52.736 321.574 51.376ZM341.413 58.216C340.165 58.216 339.037 57.936 338.029 57.376C337.021 56.8 336.229 56 335.653 54.976C335.077 53.936 334.789 52.736 334.789 51.376C334.789 50.032 335.085 48.84 335.677 47.8C336.269 46.76 337.077 45.96 338.101 45.4C339.125 44.84 340.269 44.56 341.533 44.56C342.797 44.56 343.941 44.84 344.965 45.4C345.989 45.96 346.797 46.76 347.389 47.8C347.981 48.84 348.277 50.032 348.277 51.376C348.277 52.72 347.973 53.912 347.365 54.952C346.757 55.992 345.925 56.8 344.869 57.376C343.829 57.936 342.677 58.216 341.413 58.216ZM341.413 55.84C342.117 55.84 342.773 55.672 343.381 55.336C344.005 55 344.509 54.496 344.893 53.824C345.277 53.152 345.469 52.336 345.469 51.376C345.469 50.416 345.285 49.608 344.917 48.952C344.549 48.28 344.061 47.776 343.453 47.44C342.845 47.104 342.189 46.936 341.485 46.936C340.781 46.936 340.125 47.104 339.517 47.44C338.925 47.776 338.453 48.28 338.101 48.952C337.749 49.608 337.573 50.416 337.573 51.376C337.573 52.8 337.933 53.904 338.653 54.688C339.389 55.456 340.309 55.84 341.413 55.84ZM365.789 44.56C366.829 44.56 367.757 44.776 368.573 45.208C369.405 45.64 370.053 46.28 370.517 47.128C370.997 47.976 371.237 49 371.237 50.2V58H368.525V50.608C368.525 49.424 368.229 48.52 367.637 47.896C367.045 47.256 366.237 46.936 365.213 46.936C364.189 46.936 363.373 47.256 362.765 47.896C362.173 48.52 361.877 49.424 361.877 50.608V58H359.165V50.608C359.165 49.424 358.869 48.52 358.277 47.896C357.685 47.256 356.877 46.936 355.853 46.936C354.829 46.936 354.013 47.256 353.405 47.896C352.813 48.52 352.517 49.424 352.517 50.608V58H349.781V44.776H352.517V46.288C352.965 45.744 353.533 45.32 354.221 45.016C354.909 44.712 355.645 44.56 356.429 44.56C357.485 44.56 358.429 44.784 359.261 45.232C360.093 45.68 360.733 46.328 361.181 47.176C361.581 46.376 362.205 45.744 363.053 45.28C363.901 44.8 364.813 44.56 365.789 44.56Z" fill="#F3F3F3"/>
<path d="M7.29169 66.6666C6.45835 66.6666 5.72919 66.3541 5.10419 65.7291C4.47919 65.1041 4.16669 64.3749 4.16669 63.5416V36.4583C4.16669 35.6249 4.47919 34.8958 5.10419 34.2708C5.72919 33.6458 6.45835 33.3333 7.29169 33.3333H42.7084C43.5417 33.3333 44.2709 33.6458 44.8959 34.2708C45.5209 34.8958 45.8334 35.6249 45.8334 36.4583V63.5416C45.8334 64.3749 45.5209 65.1041 44.8959 65.7291C44.2709 66.3541 43.5417 66.6666 42.7084 66.6666H7.29169ZM25 50.9374L7.29169 39.3228V63.5416H42.7084V39.3228L25 50.9374ZM25 47.8124L42.5 36.4583H7.5521L25 47.8124ZM7.29169 39.3228V36.4583V63.5416V39.3228Z" fill="#F3F3F3"/>
</svg>
