<svg width="94" height="62" viewBox="0 0 94 62" fill="none" xmlns="http://www.w3.org/2000/svg">
<g filter="url(#filter0_d_19_19)">
<mask id="path-1-outside-1_19_19" maskUnits="userSpaceOnUse" x="1.01509" y="0.650146" width="91" height="58" fill="black">
<rect fill="white" x="1.01509" y="0.650146" width="91" height="58"/>
<path d="M3.17134 3.2439H4.64009C4.97342 4.28556 5.52551 5.02515 6.29634 5.46265C7.29634 6.04598 8.92134 6.33765 11.1713 6.33765C12.6088 6.33765 17.1713 6.19181 24.8588 5.90015C29.5047 5.71265 32.4005 5.6189 33.5463 5.6189C37.0047 5.6189 39.9422 6.21265 42.3588 7.40015C44.7963 8.58765 46.7755 10.4106 48.2963 12.8689C49.8172 15.3272 50.8276 18.7126 51.3276 23.0251C51.6818 26.046 51.9838 32.7022 52.2338 42.9939C48.1713 45.5564 45.0463 47.7751 42.8588 49.6501C36.2338 47.796 30.3901 46.8689 25.3276 46.8689C21.8901 46.8689 18.7026 47.2856 15.7651 48.1189C12.8276 48.9314 9.71301 50.2439 6.42134 52.0564L5.51509 50.8689C9.78592 48.6606 13.5359 46.4001 16.7651 44.0876C19.9943 41.7751 22.1193 39.7126 23.1401 37.9001C24.1818 36.0668 24.7026 33.7439 24.7026 30.9314C24.7026 29.9106 24.6818 28.4001 24.6401 26.4001C24.5984 25.0043 24.5776 23.5564 24.5776 22.0564C24.5776 19.4106 24.7234 17.4626 25.0151 16.2126C25.3276 14.9626 25.9734 13.5251 26.9526 11.9001H26.1401C23.5984 13.3585 21.9005 14.6918 21.0463 15.9001C20.213 17.0876 19.7963 18.6085 19.7963 20.4626L20.0463 31.5564C20.0463 34.5147 19.1609 37.171 17.3901 39.5251C15.6193 41.8585 11.3693 45.2335 4.64009 49.6501L3.73384 48.4314C7.12967 46.0564 9.36926 44.1085 10.4526 42.5876C11.5359 41.0668 12.0776 39.4731 12.0776 37.8064C12.0776 36.3689 11.6193 35.1501 10.7026 34.1501C9.78592 33.1293 8.77551 32.6189 7.67134 32.6189C7.10884 32.6189 6.58801 32.7751 6.10884 33.0876C5.62967 33.4001 4.98384 34.046 4.17134 35.0251L3.17134 34.0251C3.87967 32.2335 4.81717 30.921 5.98384 30.0876C7.17134 29.2543 8.58801 28.8376 10.2338 28.8376C10.713 28.8376 11.2338 28.8897 11.7963 28.9939C12.3797 29.0981 13.0047 29.2543 13.6713 29.4626C13.6297 28.2543 13.6088 27.2022 13.6088 26.3064C13.6088 23.0356 14.2651 20.3793 15.5776 18.3376C16.9109 16.2751 19.4526 14.1293 23.2026 11.9001C19.7651 12.2543 16.7963 12.4314 14.2963 12.4314C11.6505 12.4314 9.37967 12.0564 7.48384 11.3064C6.06717 10.7231 5.02551 9.79598 4.35884 8.52515C3.69217 7.23348 3.29634 5.47306 3.17134 3.2439ZM28.4838 11.9001C27.588 13.421 26.9838 14.7439 26.6713 15.8689C26.2547 17.4106 26.0463 18.8481 26.0463 20.1814L26.2963 32.4939C26.2963 34.0772 25.9005 35.6918 25.1088 37.3376C24.5047 38.5668 23.3693 40.0668 21.7026 41.8376C24.7443 41.3376 27.0672 41.0981 28.6713 41.1189L30.4526 41.1501V11.9001H28.4838ZM32.0463 23.9001C33.3172 24.796 34.4213 25.4106 35.3588 25.7439C36.3172 26.0772 37.3484 26.2439 38.4526 26.2439C39.5568 26.2439 40.588 26.0772 41.5463 25.7439C42.5047 25.3897 43.6297 24.7751 44.9213 23.9001C44.5255 19.2126 43.3172 16.046 41.2963 14.4001C39.2755 12.7335 36.1922 11.9001 32.0463 11.9001V23.9001ZM32.0463 34.2126C33.463 33.4001 34.6713 32.8481 35.6713 32.5564C36.6713 32.2439 37.7651 32.0876 38.9526 32.0876C40.0984 32.0876 41.1609 32.2335 42.1401 32.5251C43.1193 32.796 44.2963 33.3168 45.6713 34.0876L45.1401 25.6189C43.8068 26.4314 42.6505 26.9939 41.6713 27.3064C40.713 27.5981 39.6609 27.7439 38.5151 27.7439C37.4109 27.7439 36.3172 27.5668 35.2338 27.2126C34.1505 26.8585 33.088 26.3272 32.0463 25.6189V34.2126ZM32.0463 41.2439C34.588 41.4522 36.6505 41.7126 38.2338 42.0251C39.838 42.3168 42.338 42.9418 45.7338 43.9001C45.7755 40.7543 45.7963 39.1293 45.7963 39.0251C45.7963 38.7751 45.7755 37.7751 45.7338 36.0251C44.4005 35.1085 43.2234 34.4731 42.2026 34.1189C41.2026 33.7647 40.1088 33.5876 38.9213 33.5876C37.713 33.5876 36.588 33.7647 35.5463 34.1189C34.5255 34.4731 33.3588 35.1085 32.0463 36.0251V41.2439ZM88.9138 2.3064L90.0076 3.33765C87.3201 6.27515 85.4763 8.84806 84.4763 11.0564C83.4972 13.2439 83.0076 15.6293 83.0076 18.2126C83.0076 19.5043 83.0493 21.8064 83.1326 25.1189C83.1743 26.8689 83.1951 28.6814 83.1951 30.5564C83.1951 36.3272 82.4763 40.6397 81.0388 43.4939C79.143 47.2439 76.0388 50.5356 71.7263 53.3689C68.1638 55.7231 65.0284 56.9001 62.3201 56.9001C61.5701 56.9001 60.9034 56.8272 60.3201 56.6814C59.7576 56.5564 58.8409 56.2543 57.5701 55.7751C55.8409 55.0876 54.4347 54.7439 53.3513 54.7439C52.4347 54.7439 51.6847 54.9418 51.1013 55.3376C50.7055 55.6085 50.3305 56.1814 49.9763 57.0564L48.7263 56.5251C49.268 54.4626 49.9763 52.9418 50.8513 51.9626C52.268 50.421 54.143 49.6501 56.4763 49.6501C57.4555 49.6501 58.5493 49.8481 59.7576 50.2439C61.4868 50.8064 62.768 51.0876 63.6013 51.0876C65.2263 51.0876 66.5388 50.5772 67.5388 49.5564C68.5597 48.5147 69.0701 47.1501 69.0701 45.4626C69.0701 43.1501 68.268 40.8793 66.6638 38.6501C64.4347 35.5668 61.6951 34.0251 58.4451 34.0251C57.8409 34.0251 57.0909 34.1293 56.1951 34.3376L55.5076 33.2126C57.4659 32.046 59.3097 31.4626 61.0388 31.4626C61.9763 31.4626 62.8409 31.5876 63.6326 31.8376C64.4243 32.0668 65.393 32.5251 66.5388 33.2126C66.3097 31.3585 65.9347 29.9522 65.4138 28.9939C64.7263 27.7231 63.7993 26.7335 62.6326 26.0251C61.4868 25.296 60.3722 24.9314 59.2888 24.9314C58.3097 24.9314 57.2784 25.3064 56.1951 26.0564L55.3513 24.9939C56.5388 23.9939 57.6222 23.296 58.6013 22.9001C59.5805 22.5043 60.6743 22.3064 61.8826 22.3064C63.4868 22.3064 65.2576 22.8585 67.1951 23.9626C67.2784 21.5876 67.5909 19.7022 68.1326 18.3064C68.6743 16.8897 69.6743 15.4314 71.1326 13.9314C72.5909 12.4106 74.9555 10.5981 78.2263 8.4939C75.2472 9.4314 72.7576 9.90015 70.7576 9.90015C68.6951 9.90015 66.4034 9.45223 63.8826 8.5564C61.3618 7.63973 59.4243 7.1814 58.0701 7.1814C56.2993 7.1814 54.9034 7.60848 53.8826 8.46265C52.8618 9.29598 52.3513 10.1501 52.3513 11.0251C52.3513 11.296 52.4243 11.5147 52.5701 11.6814C52.7368 11.8481 52.9347 11.9314 53.1638 11.9314C53.3722 11.9314 53.6847 11.8376 54.1013 11.6501C54.5388 11.4626 54.9243 11.3689 55.2576 11.3689C55.9659 11.3689 56.5701 11.6293 57.0701 12.1501C57.5701 12.6501 57.8201 13.2751 57.8201 14.0251C57.8201 14.8585 57.5388 15.5564 56.9763 16.1189C56.4347 16.6814 55.7368 16.9626 54.8826 16.9626C53.7784 16.9626 52.7993 16.4939 51.9451 15.5564C51.1118 14.5981 50.6951 13.3376 50.6951 11.7751C50.6951 9.50431 51.7368 7.42098 53.8201 5.52515C55.9034 3.62931 58.4555 2.6814 61.4763 2.6814C63.3722 2.6814 66.5805 3.19181 71.1013 4.21265C74.7263 5.04598 77.5701 5.46265 79.6326 5.46265C81.5701 5.46265 83.2159 5.22306 84.5701 4.7439C85.9451 4.26473 87.393 3.45223 88.9138 2.3064ZM84.4451 6.71265C81.4868 8.15015 79.3097 9.53556 77.9138 10.8689C76.0597 12.6814 74.6638 14.7856 73.7263 17.1814C72.7888 19.5564 72.3201 22.8064 72.3201 26.9314L72.5076 40.7751C72.5076 44.171 72.0805 46.8168 71.2263 48.7126C70.6222 50.0876 69.3305 51.5564 67.3513 53.1189C69.6638 52.1606 71.3305 51.2856 72.3513 50.4939C73.768 49.3897 74.8826 47.9626 75.6951 46.2126C76.5076 44.4418 76.9138 42.2022 76.9138 39.4939L76.6951 25.3064C76.6951 21.0564 77.4138 17.3064 78.8513 14.0564C79.8305 11.8064 81.6951 9.35848 84.4451 6.71265Z"/>
</mask>
<path d="M3.17134 3.2439H4.64009C4.97342 4.28556 5.52551 5.02515 6.29634 5.46265C7.29634 6.04598 8.92134 6.33765 11.1713 6.33765C12.6088 6.33765 17.1713 6.19181 24.8588 5.90015C29.5047 5.71265 32.4005 5.6189 33.5463 5.6189C37.0047 5.6189 39.9422 6.21265 42.3588 7.40015C44.7963 8.58765 46.7755 10.4106 48.2963 12.8689C49.8172 15.3272 50.8276 18.7126 51.3276 23.0251C51.6818 26.046 51.9838 32.7022 52.2338 42.9939C48.1713 45.5564 45.0463 47.7751 42.8588 49.6501C36.2338 47.796 30.3901 46.8689 25.3276 46.8689C21.8901 46.8689 18.7026 47.2856 15.7651 48.1189C12.8276 48.9314 9.71301 50.2439 6.42134 52.0564L5.51509 50.8689C9.78592 48.6606 13.5359 46.4001 16.7651 44.0876C19.9943 41.7751 22.1193 39.7126 23.1401 37.9001C24.1818 36.0668 24.7026 33.7439 24.7026 30.9314C24.7026 29.9106 24.6818 28.4001 24.6401 26.4001C24.5984 25.0043 24.5776 23.5564 24.5776 22.0564C24.5776 19.4106 24.7234 17.4626 25.0151 16.2126C25.3276 14.9626 25.9734 13.5251 26.9526 11.9001H26.1401C23.5984 13.3585 21.9005 14.6918 21.0463 15.9001C20.213 17.0876 19.7963 18.6085 19.7963 20.4626L20.0463 31.5564C20.0463 34.5147 19.1609 37.171 17.3901 39.5251C15.6193 41.8585 11.3693 45.2335 4.64009 49.6501L3.73384 48.4314C7.12967 46.0564 9.36926 44.1085 10.4526 42.5876C11.5359 41.0668 12.0776 39.4731 12.0776 37.8064C12.0776 36.3689 11.6193 35.1501 10.7026 34.1501C9.78592 33.1293 8.77551 32.6189 7.67134 32.6189C7.10884 32.6189 6.58801 32.7751 6.10884 33.0876C5.62967 33.4001 4.98384 34.046 4.17134 35.0251L3.17134 34.0251C3.87967 32.2335 4.81717 30.921 5.98384 30.0876C7.17134 29.2543 8.58801 28.8376 10.2338 28.8376C10.713 28.8376 11.2338 28.8897 11.7963 28.9939C12.3797 29.0981 13.0047 29.2543 13.6713 29.4626C13.6297 28.2543 13.6088 27.2022 13.6088 26.3064C13.6088 23.0356 14.2651 20.3793 15.5776 18.3376C16.9109 16.2751 19.4526 14.1293 23.2026 11.9001C19.7651 12.2543 16.7963 12.4314 14.2963 12.4314C11.6505 12.4314 9.37967 12.0564 7.48384 11.3064C6.06717 10.7231 5.02551 9.79598 4.35884 8.52515C3.69217 7.23348 3.29634 5.47306 3.17134 3.2439ZM28.4838 11.9001C27.588 13.421 26.9838 14.7439 26.6713 15.8689C26.2547 17.4106 26.0463 18.8481 26.0463 20.1814L26.2963 32.4939C26.2963 34.0772 25.9005 35.6918 25.1088 37.3376C24.5047 38.5668 23.3693 40.0668 21.7026 41.8376C24.7443 41.3376 27.0672 41.0981 28.6713 41.1189L30.4526 41.1501V11.9001H28.4838ZM32.0463 23.9001C33.3172 24.796 34.4213 25.4106 35.3588 25.7439C36.3172 26.0772 37.3484 26.2439 38.4526 26.2439C39.5568 26.2439 40.588 26.0772 41.5463 25.7439C42.5047 25.3897 43.6297 24.7751 44.9213 23.9001C44.5255 19.2126 43.3172 16.046 41.2963 14.4001C39.2755 12.7335 36.1922 11.9001 32.0463 11.9001V23.9001ZM32.0463 34.2126C33.463 33.4001 34.6713 32.8481 35.6713 32.5564C36.6713 32.2439 37.7651 32.0876 38.9526 32.0876C40.0984 32.0876 41.1609 32.2335 42.1401 32.5251C43.1193 32.796 44.2963 33.3168 45.6713 34.0876L45.1401 25.6189C43.8068 26.4314 42.6505 26.9939 41.6713 27.3064C40.713 27.5981 39.6609 27.7439 38.5151 27.7439C37.4109 27.7439 36.3172 27.5668 35.2338 27.2126C34.1505 26.8585 33.088 26.3272 32.0463 25.6189V34.2126ZM32.0463 41.2439C34.588 41.4522 36.6505 41.7126 38.2338 42.0251C39.838 42.3168 42.338 42.9418 45.7338 43.9001C45.7755 40.7543 45.7963 39.1293 45.7963 39.0251C45.7963 38.7751 45.7755 37.7751 45.7338 36.0251C44.4005 35.1085 43.2234 34.4731 42.2026 34.1189C41.2026 33.7647 40.1088 33.5876 38.9213 33.5876C37.713 33.5876 36.588 33.7647 35.5463 34.1189C34.5255 34.4731 33.3588 35.1085 32.0463 36.0251V41.2439ZM88.9138 2.3064L90.0076 3.33765C87.3201 6.27515 85.4763 8.84806 84.4763 11.0564C83.4972 13.2439 83.0076 15.6293 83.0076 18.2126C83.0076 19.5043 83.0493 21.8064 83.1326 25.1189C83.1743 26.8689 83.1951 28.6814 83.1951 30.5564C83.1951 36.3272 82.4763 40.6397 81.0388 43.4939C79.143 47.2439 76.0388 50.5356 71.7263 53.3689C68.1638 55.7231 65.0284 56.9001 62.3201 56.9001C61.5701 56.9001 60.9034 56.8272 60.3201 56.6814C59.7576 56.5564 58.8409 56.2543 57.5701 55.7751C55.8409 55.0876 54.4347 54.7439 53.3513 54.7439C52.4347 54.7439 51.6847 54.9418 51.1013 55.3376C50.7055 55.6085 50.3305 56.1814 49.9763 57.0564L48.7263 56.5251C49.268 54.4626 49.9763 52.9418 50.8513 51.9626C52.268 50.421 54.143 49.6501 56.4763 49.6501C57.4555 49.6501 58.5493 49.8481 59.7576 50.2439C61.4868 50.8064 62.768 51.0876 63.6013 51.0876C65.2263 51.0876 66.5388 50.5772 67.5388 49.5564C68.5597 48.5147 69.0701 47.1501 69.0701 45.4626C69.0701 43.1501 68.268 40.8793 66.6638 38.6501C64.4347 35.5668 61.6951 34.0251 58.4451 34.0251C57.8409 34.0251 57.0909 34.1293 56.1951 34.3376L55.5076 33.2126C57.4659 32.046 59.3097 31.4626 61.0388 31.4626C61.9763 31.4626 62.8409 31.5876 63.6326 31.8376C64.4243 32.0668 65.393 32.5251 66.5388 33.2126C66.3097 31.3585 65.9347 29.9522 65.4138 28.9939C64.7263 27.7231 63.7993 26.7335 62.6326 26.0251C61.4868 25.296 60.3722 24.9314 59.2888 24.9314C58.3097 24.9314 57.2784 25.3064 56.1951 26.0564L55.3513 24.9939C56.5388 23.9939 57.6222 23.296 58.6013 22.9001C59.5805 22.5043 60.6743 22.3064 61.8826 22.3064C63.4868 22.3064 65.2576 22.8585 67.1951 23.9626C67.2784 21.5876 67.5909 19.7022 68.1326 18.3064C68.6743 16.8897 69.6743 15.4314 71.1326 13.9314C72.5909 12.4106 74.9555 10.5981 78.2263 8.4939C75.2472 9.4314 72.7576 9.90015 70.7576 9.90015C68.6951 9.90015 66.4034 9.45223 63.8826 8.5564C61.3618 7.63973 59.4243 7.1814 58.0701 7.1814C56.2993 7.1814 54.9034 7.60848 53.8826 8.46265C52.8618 9.29598 52.3513 10.1501 52.3513 11.0251C52.3513 11.296 52.4243 11.5147 52.5701 11.6814C52.7368 11.8481 52.9347 11.9314 53.1638 11.9314C53.3722 11.9314 53.6847 11.8376 54.1013 11.6501C54.5388 11.4626 54.9243 11.3689 55.2576 11.3689C55.9659 11.3689 56.5701 11.6293 57.0701 12.1501C57.5701 12.6501 57.8201 13.2751 57.8201 14.0251C57.8201 14.8585 57.5388 15.5564 56.9763 16.1189C56.4347 16.6814 55.7368 16.9626 54.8826 16.9626C53.7784 16.9626 52.7993 16.4939 51.9451 15.5564C51.1118 14.5981 50.6951 13.3376 50.6951 11.7751C50.6951 9.50431 51.7368 7.42098 53.8201 5.52515C55.9034 3.62931 58.4555 2.6814 61.4763 2.6814C63.3722 2.6814 66.5805 3.19181 71.1013 4.21265C74.7263 5.04598 77.5701 5.46265 79.6326 5.46265C81.5701 5.46265 83.2159 5.22306 84.5701 4.7439C85.9451 4.26473 87.393 3.45223 88.9138 2.3064ZM84.4451 6.71265C81.4868 8.15015 79.3097 9.53556 77.9138 10.8689C76.0597 12.6814 74.6638 14.7856 73.7263 17.1814C72.7888 19.5564 72.3201 22.8064 72.3201 26.9314L72.5076 40.7751C72.5076 44.171 72.0805 46.8168 71.2263 48.7126C70.6222 50.0876 69.3305 51.5564 67.3513 53.1189C69.6638 52.1606 71.3305 51.2856 72.3513 50.4939C73.768 49.3897 74.8826 47.9626 75.6951 46.2126C76.5076 44.4418 76.9138 42.2022 76.9138 39.4939L76.6951 25.3064C76.6951 21.0564 77.4138 17.3064 78.8513 14.0564C79.8305 11.8064 81.6951 9.35848 84.4451 6.71265Z" fill="#191919" fill-opacity="0.65" shape-rendering="crispEdges"/>
<path d="M3.17134 3.2439V2.2439H2.1137L2.17291 3.29988L3.17134 3.2439ZM4.64009 3.2439L5.59252 2.93912L5.37004 2.2439H4.64009V3.2439ZM6.29634 5.46265L6.80025 4.59881L6.78995 4.59296L6.29634 5.46265ZM24.8588 5.90015L24.8968 6.89943L24.8992 6.89933L24.8588 5.90015ZM42.3588 7.40015L41.9178 8.29765L41.9209 8.29914L42.3588 7.40015ZM51.3276 23.0251L50.3342 23.1403L50.3344 23.1416L51.3276 23.0251ZM52.2338 42.9939L52.7673 43.8397L53.2473 43.5369L53.2335 42.9696L52.2338 42.9939ZM42.8588 49.6501L42.5893 50.6131L43.1039 50.7572L43.5096 50.4094L42.8588 49.6501ZM15.7651 48.1189L16.0317 49.0827L16.038 49.0809L15.7651 48.1189ZM6.42134 52.0564L5.62639 52.6631L6.14903 53.3479L6.90369 52.9324L6.42134 52.0564ZM5.51509 50.8689L5.05579 49.9806L3.99704 50.5281L4.72014 51.4756L5.51509 50.8689ZM16.7651 44.0876L16.1829 43.2746L16.7651 44.0876ZM23.1401 37.9001L22.2706 37.4061L22.2688 37.4094L23.1401 37.9001ZM24.6401 26.4001L25.6399 26.3793L25.6396 26.3703L24.6401 26.4001ZM25.0151 16.2126L24.0449 15.9701L24.043 15.9777L24.0412 15.9854L25.0151 16.2126ZM26.9526 11.9001L27.8091 12.4163L28.7227 10.9001H26.9526V11.9001ZM26.1401 11.9001V10.9001H25.8736L25.6424 11.0328L26.1401 11.9001ZM21.0463 15.9001L20.2298 15.3229L20.2278 15.3257L21.0463 15.9001ZM19.7963 20.4626H18.7963V20.4739L18.7966 20.4852L19.7963 20.4626ZM20.0463 31.5564H21.0463V31.5451L21.0461 31.5339L20.0463 31.5564ZM17.3901 39.5251L18.1867 40.1297L18.1892 40.1263L17.3901 39.5251ZM4.64009 49.6501L3.83763 50.2468L4.40037 51.0036L5.1888 50.4862L4.64009 49.6501ZM3.73384 48.4314L3.16072 47.6119L2.31707 48.202L2.93138 49.0281L3.73384 48.4314ZM10.7026 34.1501L9.9585 34.8183L9.96544 34.8259L10.7026 34.1501ZM6.10884 33.0876L5.56257 32.25L6.10884 33.0876ZM4.17134 35.0251L3.46423 35.7323L4.24017 36.5082L4.9409 35.6637L4.17134 35.0251ZM3.17134 34.0251L2.24138 33.6575L2.00001 34.268L2.46423 34.7323L3.17134 34.0251ZM5.98384 30.0876L5.4094 29.2691L5.4026 29.2739L5.98384 30.0876ZM11.7963 28.9939L11.6142 29.9772L11.6206 29.9783L11.7963 28.9939ZM13.6713 29.4626L13.3731 30.4171L14.7194 30.8378L14.6707 29.4282L13.6713 29.4626ZM15.5776 18.3376L14.7378 17.7947L14.7364 17.7969L15.5776 18.3376ZM23.2026 11.9001L23.7136 12.7597L23.1001 10.9054L23.2026 11.9001ZM7.48384 11.3064L7.10305 12.2312L7.11598 12.2363L7.48384 11.3064ZM4.35884 8.52515L3.4702 8.9838L3.47329 8.9897L4.35884 8.52515ZM28.4838 11.9001V10.9001H27.9123L27.6222 11.3926L28.4838 11.9001ZM26.6713 15.8689L25.7078 15.6012L25.706 15.608L26.6713 15.8689ZM26.0463 20.1814H25.0463V20.1915L25.0465 20.2017L26.0463 20.1814ZM26.2963 32.4939H27.2963V32.4837L27.2961 32.4736L26.2963 32.4939ZM25.1088 37.3376L26.0063 37.7788L26.01 37.7711L25.1088 37.3376ZM21.7026 41.8376L20.9744 41.1523L18.9496 43.3036L21.8648 42.8244L21.7026 41.8376ZM28.6713 41.1189L28.6889 40.119L28.6843 40.119L28.6713 41.1189ZM30.4526 41.1501L30.435 42.15L31.4526 42.1678V41.1501H30.4526ZM30.4526 11.9001H31.4526V10.9001H30.4526V11.9001ZM32.0463 23.9001H31.0463V24.4187L31.4702 24.7175L32.0463 23.9001ZM35.3588 25.7439L35.0238 26.6861L35.0303 26.6884L35.3588 25.7439ZM41.5463 25.7439L41.8749 26.6884L41.884 26.6852L41.893 26.6819L41.5463 25.7439ZM44.9213 23.9001L45.4822 24.7281L45.9671 24.3996L45.9178 23.816L44.9213 23.9001ZM41.2963 14.4001L40.6601 15.1716L40.6648 15.1755L41.2963 14.4001ZM32.0463 11.9001V10.9001H31.0463V11.9001H32.0463ZM32.0463 34.2126H31.0463V35.939L32.5439 35.0801L32.0463 34.2126ZM35.6713 32.5564L35.9513 33.5164L35.9605 33.5137L35.9696 33.5109L35.6713 32.5564ZM42.1401 32.5251L41.8546 33.4835L41.864 33.4863L41.8735 33.489L42.1401 32.5251ZM45.6713 34.0876L45.1823 34.9599L46.7844 35.858L46.6694 34.025L45.6713 34.0876ZM45.1401 25.6189L46.1381 25.5563L46.0344 23.9029L44.6197 24.765L45.1401 25.6189ZM41.6713 27.3064L41.9625 28.2632L41.9754 28.2591L41.6713 27.3064ZM32.0463 25.6189L32.6087 24.792L31.0463 23.7296V25.6189H32.0463ZM32.0463 41.2439H31.0463V42.1653L31.9646 42.2406L32.0463 41.2439ZM38.2338 42.0251L38.0402 43.0062L38.0476 43.0077L38.055 43.009L38.2338 42.0251ZM45.7338 43.9001L45.4622 44.8626L46.7165 45.2165L46.7338 43.9134L45.7338 43.9001ZM45.7338 36.0251L46.7336 36.0013L46.7214 35.4906L46.3004 35.2011L45.7338 36.0251ZM42.2026 34.1189L41.8687 35.0615L41.8748 35.0637L42.2026 34.1189ZM35.5463 34.1189L35.2244 33.1721L35.2186 33.1741L35.5463 34.1189ZM32.0463 36.0251L31.4738 35.2053L31.0463 35.5038V36.0251H32.0463ZM3.17134 3.2439V4.2439H4.64009V3.2439V2.2439H3.17134V3.2439ZM4.64009 3.2439L3.68767 3.54867C4.07879 4.77094 4.76521 5.74347 5.80274 6.33233L6.29634 5.46265L6.78995 4.59296C6.2858 4.30683 5.86806 3.80019 5.59252 2.93912L4.64009 3.2439ZM6.29634 5.46265L5.79247 6.32643C7.03193 7.04944 8.88261 7.33765 11.1713 7.33765V6.33765V5.33765C8.96008 5.33765 7.56075 5.04252 6.80021 4.59887L6.29634 5.46265ZM11.1713 6.33765V7.33765C12.6329 7.33765 17.2199 7.19069 24.8968 6.89943L24.8588 5.90015L24.8209 4.90087C17.1228 5.19293 12.5848 5.33765 11.1713 5.33765V6.33765ZM24.8588 5.90015L24.8992 6.89933C29.5527 6.71152 32.4253 6.6189 33.5463 6.6189V5.6189V4.6189C32.3757 4.6189 29.4566 4.71377 24.8185 4.90096L24.8588 5.90015ZM33.5463 5.6189V6.6189C36.8938 6.6189 39.6717 7.19395 41.9178 8.29765L42.3588 7.40015L42.7999 6.50265C40.2126 5.23134 37.1155 4.6189 33.5463 4.6189V5.6189ZM42.3588 7.40015L41.9209 8.29914C44.177 9.39829 46.0177 11.0863 47.4459 13.395L48.2963 12.8689L49.1468 12.3428C47.5333 9.73478 45.4157 7.777 42.7968 6.50116L42.3588 7.40015ZM48.2963 12.8689L47.4459 13.395C48.8607 15.6818 49.8434 18.9069 50.3342 23.1403L51.3276 23.0251L52.3209 22.91C51.8118 18.5183 50.7737 14.9726 49.1468 12.3428L48.2963 12.8689ZM51.3276 23.0251L50.3344 23.1416C50.6821 26.1076 50.9838 32.7146 51.2341 43.0182L52.2338 42.9939L53.2335 42.9696C52.9838 32.6898 52.6814 25.9844 52.3208 22.9087L51.3276 23.0251ZM52.2338 42.9939L51.7003 42.1481C47.6199 44.7219 44.4487 46.9703 42.208 48.8909L42.8588 49.6501L43.5096 50.4094C45.644 48.58 48.7227 46.3909 52.7673 43.8397L52.2338 42.9939ZM42.8588 49.6501L43.1284 48.6872C36.4448 46.8166 30.5072 45.8689 25.3276 45.8689V46.8689V47.8689C30.273 47.8689 36.0229 48.7754 42.5893 50.6131L42.8588 49.6501ZM25.3276 46.8689V45.8689C21.8092 45.8689 18.5288 46.2954 15.4922 47.1569L15.7651 48.1189L16.038 49.0809C18.8764 48.2757 21.971 47.8689 25.3276 47.8689V46.8689ZM15.7651 48.1189L15.4985 47.1551C12.4709 47.9925 9.28378 49.3387 5.939 51.1804L6.42134 52.0564L6.90369 52.9324C10.1422 51.1491 13.1843 49.8703 16.0317 49.0827L15.7651 48.1189ZM6.42134 52.0564L7.21629 51.4497L6.31004 50.2622L5.51509 50.8689L4.72014 51.4756L5.62639 52.6631L6.42134 52.0564ZM5.51509 50.8689L5.9744 51.7572C10.2794 49.5312 14.0719 47.2463 17.3473 44.9007L16.7651 44.0876L16.1829 43.2746C12.9999 45.554 9.29245 47.79 5.05579 49.9806L5.51509 50.8689ZM16.7651 44.0876L17.3473 44.9007C20.6065 42.5667 22.8798 40.4001 24.0114 38.3909L23.1401 37.9001L22.2688 37.4094C21.3587 39.0252 19.382 40.9836 16.1829 43.2746L16.7651 44.0876ZM23.1401 37.9001L24.0095 38.3942C25.1607 36.3682 25.7026 33.8613 25.7026 30.9314H24.7026H23.7026C23.7026 33.6265 23.2028 35.7654 22.2706 37.4061L23.1401 37.9001ZM24.7026 30.9314H25.7026C25.7026 29.8998 25.6816 28.381 25.6399 26.3793L24.6401 26.4001L23.6403 26.421C23.6819 28.4193 23.7026 29.9213 23.7026 30.9314H24.7026ZM24.6401 26.4001L25.6396 26.3703C25.5983 24.9851 25.5776 23.5472 25.5776 22.0564H24.5776H23.5776C23.5776 23.5656 23.5986 25.0235 23.6405 26.43L24.6401 26.4001ZM24.5776 22.0564H25.5776C25.5776 19.4243 25.7247 17.5723 25.9889 16.4399L25.0151 16.2126L24.0412 15.9854C23.7221 17.353 23.5776 19.3969 23.5776 22.0564H24.5776ZM25.0151 16.2126L25.9852 16.4552C26.2652 15.3354 26.8594 13.9924 27.8091 12.4163L26.9526 11.9001L26.0961 11.384C25.0875 13.0579 24.39 14.5899 24.0449 15.9701L25.0151 16.2126ZM26.9526 11.9001V10.9001H26.1401V11.9001V12.9001H26.9526V11.9001ZM26.1401 11.9001L25.6424 11.0328C23.0745 12.5062 21.2156 13.9283 20.2298 15.3229L21.0463 15.9001L21.8629 16.4774C22.5854 15.4553 24.1224 14.2108 26.6378 12.7675L26.1401 11.9001ZM21.0463 15.9001L20.2278 15.3257C19.2473 16.7229 18.7963 18.4601 18.7963 20.4626H19.7963H20.7963C20.7963 18.7569 21.1787 17.4524 21.8649 16.4746L21.0463 15.9001ZM19.7963 20.4626L18.7966 20.4852L19.0466 31.5789L20.0463 31.5564L21.0461 31.5339L20.7961 20.4401L19.7963 20.4626ZM20.0463 31.5564H19.0463C19.0463 34.2989 18.2308 36.7439 16.5909 38.924L17.3901 39.5251L18.1892 40.1263C20.091 37.598 21.0463 34.7306 21.0463 31.5564H20.0463ZM17.3901 39.5251L16.5935 38.9206C14.9417 41.0971 10.8369 44.3867 4.09138 48.8141L4.64009 49.6501L5.1888 50.4862C11.9016 46.0802 16.2968 42.6199 18.1867 40.1297L17.3901 39.5251ZM4.64009 49.6501L5.44255 49.0534L4.5363 47.8347L3.73384 48.4314L2.93138 49.0281L3.83763 50.2468L4.64009 49.6501ZM3.73384 48.4314L4.30697 49.2509C7.71039 46.8706 10.0761 44.8398 11.2671 43.1678L10.4526 42.5876L9.6381 42.0075C8.66246 43.3771 6.54896 45.2422 3.16072 47.6119L3.73384 48.4314ZM10.4526 42.5876L11.2671 43.1678C12.4559 41.4989 13.0776 39.7057 13.0776 37.8064H12.0776H11.0776C11.0776 39.2404 10.6159 40.6348 9.6381 42.0075L10.4526 42.5876ZM12.0776 37.8064H13.0776C13.0776 36.1351 12.5362 34.6706 11.4397 33.4744L10.7026 34.1501L9.96544 34.8259C10.7023 35.6297 11.0776 36.6027 11.0776 37.8064H12.0776ZM10.7026 34.1501L11.4466 33.482C10.3899 32.3051 9.12594 31.6189 7.67134 31.6189V32.6189V33.6189C8.42508 33.6189 9.182 33.9535 9.95854 34.8183L10.7026 34.1501ZM7.67134 32.6189V31.6189C6.91138 31.6189 6.20129 31.8335 5.56257 32.25L6.10884 33.0876L6.65511 33.9253C6.97472 33.7168 7.3063 33.6189 7.67134 33.6189V32.6189ZM6.10884 33.0876L5.56257 32.25C4.94694 32.6515 4.21957 33.401 3.40178 34.3866L4.17134 35.0251L4.9409 35.6637C5.74811 34.6909 6.31241 34.1488 6.65511 33.9253L6.10884 33.0876ZM4.17134 35.0251L4.87845 34.318L3.87845 33.318L3.17134 34.0251L2.46423 34.7323L3.46423 35.7323L4.17134 35.0251ZM3.17134 34.0251L4.1013 34.3928C4.76253 32.7203 5.60055 31.5903 6.56508 30.9014L5.98384 30.0876L5.4026 29.2739C4.0338 30.2516 2.99682 31.7467 2.24138 33.6575L3.17134 34.0251ZM5.98384 30.0876L6.55827 30.9062C7.55544 30.2064 8.76488 29.8376 10.2338 29.8376V28.8376V27.8376C8.41113 27.8376 6.78725 28.3022 5.40942 29.2691L5.98384 30.0876ZM10.2338 28.8376V29.8376C10.6415 29.8376 11.1007 29.8821 11.6143 29.9772L11.7963 28.9939L11.9784 28.0106C11.367 27.8974 10.7845 27.8376 10.2338 27.8376V28.8376ZM11.7963 28.9939L11.6206 29.9783C12.1559 30.0739 12.7397 30.2192 13.3731 30.4171L13.6713 29.4626L13.9696 28.5082C13.2697 28.2894 12.6034 28.1222 11.9721 28.0095L11.7963 28.9939ZM13.6713 29.4626L14.6707 29.4282C14.6293 28.2277 14.6088 27.1876 14.6088 26.3064H13.6088H12.6088C12.6088 27.2169 12.63 28.281 12.6719 29.4971L13.6713 29.4626ZM13.6088 26.3064H14.6088C14.6088 23.1625 15.2402 20.7117 16.4188 18.8784L15.5776 18.3376L14.7364 17.7969C13.29 20.0469 12.6088 22.9087 12.6088 26.3064H13.6088ZM15.5776 18.3376L16.4174 18.8805C17.6252 17.0123 20.0084 14.9623 23.7136 12.7597L23.2026 11.9001L22.6916 11.0406C18.8968 13.2963 16.1967 15.538 14.7378 17.7947L15.5776 18.3376ZM23.2026 11.9001L23.1001 10.9054C19.6848 11.2573 16.752 11.4314 14.2963 11.4314V12.4314V13.4314C16.8407 13.4314 19.8454 13.2513 23.3051 12.8949L23.2026 11.9001ZM14.2963 12.4314V11.4314C11.7408 11.4314 9.60128 11.0687 7.85171 10.3765L7.48384 11.3064L7.11598 12.2363C9.15807 13.0441 11.5603 13.4314 14.2963 13.4314V12.4314ZM7.48384 11.3064L7.86459 10.3817C6.64915 9.88124 5.79431 9.10889 5.24439 8.0606L4.35884 8.52515L3.47329 8.9897C4.25671 10.4831 5.4852 11.5649 7.10309 12.2311L7.48384 11.3064ZM4.35884 8.52515L5.24746 8.0665C4.67051 6.94865 4.2907 5.34443 4.16977 3.18791L3.17134 3.2439L2.17291 3.29988C2.30198 5.60169 2.71384 7.51831 3.47022 8.98379L4.35884 8.52515ZM28.4838 11.9001L27.6222 11.3926C26.7022 12.9544 26.0523 14.361 25.7078 15.6013L26.6713 15.8689L27.6349 16.1365C27.9154 15.1268 28.4738 13.8875 29.3455 12.4077L28.4838 11.9001ZM26.6713 15.8689L25.706 15.608C25.2707 17.2185 25.0463 18.7446 25.0463 20.1814H26.0463H27.0463C27.0463 18.9515 27.2386 17.6026 27.6367 16.1298L26.6713 15.8689ZM26.0463 20.1814L25.0465 20.2017L25.2965 32.5142L26.2963 32.4939L27.2961 32.4736L27.0461 20.1611L26.0463 20.1814ZM26.2963 32.4939H25.2963C25.2963 33.9057 24.9443 35.3728 24.2077 36.9042L25.1088 37.3376L26.01 37.7711C26.8568 36.0108 27.2963 34.2487 27.2963 32.4939H26.2963ZM25.1088 37.3376L24.2114 36.8965C23.6726 37.9926 22.617 39.407 20.9744 41.1523L21.7026 41.8376L22.4308 42.523C24.1216 40.7266 25.3367 39.141 26.0063 37.7788L25.1088 37.3376ZM21.7026 41.8376L21.8648 42.8244C24.8911 42.3269 27.1442 42.0991 28.6584 42.1188L28.6713 41.1189L28.6843 40.119C26.9901 40.097 24.5974 40.3484 21.5404 40.8509L21.7026 41.8376ZM28.6713 41.1189L28.6538 42.1187L30.435 42.15L30.4526 41.1501L30.4701 40.1503L28.6889 40.1191L28.6713 41.1189ZM30.4526 41.1501H31.4526V11.9001H30.4526H29.4526V41.1501H30.4526ZM30.4526 11.9001V10.9001H28.4838V11.9001V12.9001H30.4526V11.9001ZM32.0463 23.9001L31.4702 24.7175C32.7786 25.6398 33.9667 26.3102 35.0238 26.6861L35.3588 25.7439L35.6939 24.8017C34.876 24.5109 33.8557 23.9521 32.6225 23.0828L32.0463 23.9001ZM35.3588 25.7439L35.0303 26.6884C36.1032 27.0616 37.2464 27.2439 38.4526 27.2439V26.2439V25.2439C37.4504 25.2439 36.5311 25.0929 35.6874 24.7994L35.3588 25.7439ZM38.4526 26.2439V27.2439C39.6587 27.2439 40.802 27.0616 41.8749 26.6884L41.5463 25.7439L41.2178 24.7994C40.374 25.0929 39.4548 25.2439 38.4526 25.2439V26.2439ZM41.5463 25.7439L41.893 26.6819C42.9554 26.2892 44.1549 25.6272 45.4822 24.7281L44.9213 23.9001L44.3605 23.0722C43.1045 23.9231 42.0539 24.4902 41.1997 24.8059L41.5463 25.7439ZM44.9213 23.9001L45.9178 23.816C45.516 19.0577 44.2755 15.5368 41.9278 13.6248L41.2963 14.4001L40.6648 15.1755C42.3588 16.5552 43.535 19.3676 43.9249 23.9843L44.9213 23.9001ZM41.2963 14.4001L41.9326 13.6287C39.6543 11.7497 36.297 10.9001 32.0463 10.9001V11.9001V12.9001C36.0873 12.9001 38.8967 13.7173 40.6601 15.1716L41.2963 14.4001ZM32.0463 11.9001H31.0463V23.9001H32.0463H33.0463V11.9001H32.0463ZM32.0463 34.2126L32.5439 35.0801C33.926 34.2874 35.0574 33.7771 35.9513 33.5164L35.6713 32.5564L35.3913 31.5964C34.2853 31.919 33.0001 32.5129 31.5488 33.3452L32.0463 34.2126ZM35.6713 32.5564L35.9696 33.5109C36.8612 33.2323 37.853 33.0876 38.9526 33.0876V32.0876V31.0876C37.6772 31.0876 36.4815 31.2555 35.3731 31.6019L35.6713 32.5564ZM38.9526 32.0876V33.0876C40.0133 33.0876 40.9786 33.2226 41.8546 33.4835L42.1401 32.5251L42.4256 31.5668C41.3433 31.2444 40.1835 31.0876 38.9526 31.0876V32.0876ZM42.1401 32.5251L41.8735 33.489C42.7449 33.73 43.8435 34.2094 45.1823 34.9599L45.6713 34.0876L46.1603 33.2154C44.7491 32.4242 43.4936 31.862 42.4067 31.5613L42.1401 32.5251ZM45.6713 34.0876L46.6694 34.025L46.1381 25.5563L45.1401 25.6189L44.1421 25.6815L44.6733 34.1503L45.6713 34.0876ZM45.1401 25.6189L44.6197 24.765C43.3231 25.5551 42.2424 26.0745 41.3673 26.3537L41.6713 27.3064L41.9754 28.2591C43.0586 27.9133 44.2904 27.3077 45.6605 26.4728L45.1401 25.6189ZM41.6713 27.3064L41.3802 26.3497C40.5287 26.6089 39.5762 26.7439 38.5151 26.7439V27.7439V28.7439C39.7457 28.7439 40.8973 28.5873 41.9625 28.2631L41.6713 27.3064ZM38.5151 27.7439V26.7439C37.5199 26.7439 36.5309 26.5846 35.5446 26.2622L35.2338 27.2126L34.9231 28.1631C36.1035 28.549 37.302 28.7439 38.5151 28.7439V27.7439ZM35.2338 27.2126L35.5446 26.2622C34.5593 25.94 33.5808 25.453 32.6087 24.792L32.0463 25.6189L31.484 26.4458C32.5953 27.2015 33.7417 27.7769 34.9231 28.1631L35.2338 27.2126ZM32.0463 25.6189H31.0463V34.2126H32.0463H33.0463V25.6189H32.0463ZM32.0463 41.2439L31.9646 42.2406C34.4876 42.4474 36.5087 42.7039 38.0402 43.0062L38.2338 42.0251L38.4275 41.0441C36.7924 40.7214 34.6884 40.4571 32.128 40.2472L32.0463 41.2439ZM38.2338 42.0251L38.055 43.009C39.6091 43.2916 42.0703 43.9053 45.4622 44.8626L45.7338 43.9001L46.0054 42.9377C42.6057 41.9783 40.0669 41.342 38.4127 41.0413L38.2338 42.0251ZM45.7338 43.9001L46.7338 43.9134C46.7753 40.7753 46.7963 39.1381 46.7963 39.0251H45.7963H44.7963C44.7963 39.0251 44.7963 39.0272 44.7963 39.0328C44.7963 39.038 44.7962 39.0449 44.7961 39.0537C44.796 39.0711 44.7957 39.0948 44.7954 39.1247C44.7948 39.1847 44.7938 39.2685 44.7925 39.3764C44.7899 39.5921 44.786 39.903 44.7808 40.3092C44.7704 41.1215 44.7548 42.314 44.7339 43.8869L45.7338 43.9001ZM45.7963 39.0251H46.7963C46.7963 38.7598 46.775 37.7429 46.7336 36.0013L45.7338 36.0251L44.7341 36.0489C44.776 37.8074 44.7963 38.7905 44.7963 39.0251H45.7963ZM45.7338 36.0251L46.3004 35.2011C44.926 34.2562 43.6666 33.5683 42.5304 33.1741L42.2026 34.1189L41.8748 35.0637C42.7803 35.3778 43.875 35.9607 45.1673 36.8492L45.7338 36.0251ZM42.2026 34.1189L42.5364 33.1763C41.4172 32.7799 40.2091 32.5876 38.9213 32.5876V33.5876V34.5876C40.0086 34.5876 40.9879 34.7496 41.8687 35.0615L42.2026 34.1189ZM38.9213 33.5876V32.5876C37.6142 32.5876 36.3794 32.7794 35.2244 33.1721L35.5463 34.1189L35.8682 35.0657C36.7966 34.75 37.8118 34.5876 38.9213 34.5876V33.5876ZM35.5463 34.1189L35.2186 33.1741C34.0799 33.5692 32.8291 34.2587 31.4738 35.2053L32.0463 36.0251L32.6189 36.845C33.8885 35.9583 34.9712 35.3769 35.8741 35.0637L35.5463 34.1189ZM32.0463 36.0251H31.0463V41.2439H32.0463H33.0463V36.0251H32.0463ZM88.9138 2.3064L89.5999 1.57881L88.986 0.999998L88.3121 1.50771L88.9138 2.3064ZM90.0076 3.33765L90.7454 4.01266L91.4104 3.28585L90.6936 2.61006L90.0076 3.33765ZM84.4763 11.0564L83.5654 10.6439L83.5636 10.6478L84.4763 11.0564ZM83.1326 25.1189L84.1323 25.0951L84.1323 25.0937L83.1326 25.1189ZM81.0388 43.4939L81.9313 43.9451L81.932 43.9437L81.0388 43.4939ZM71.7263 53.3689L71.1772 52.5331L71.175 52.5346L71.7263 53.3689ZM60.3201 56.6814L60.5626 55.7113L60.5499 55.7081L60.537 55.7052L60.3201 56.6814ZM57.5701 55.7751L57.2006 56.7044L57.2089 56.7077L57.2173 56.7108L57.5701 55.7751ZM51.1013 55.3376L50.5398 54.5102L50.5367 54.5123L51.1013 55.3376ZM49.9763 57.0564L49.5852 57.9767L50.5216 58.3747L50.9033 57.4316L49.9763 57.0564ZM48.7263 56.5251L47.7591 56.2711L47.5395 57.1073L48.3352 57.4455L48.7263 56.5251ZM50.8513 51.9626L50.1149 51.286L50.1057 51.2963L50.8513 51.9626ZM59.7576 50.2439L59.4463 51.1942L59.4482 51.1948L59.7576 50.2439ZM67.5388 49.5564L66.8246 48.8565L66.8245 48.8566L67.5388 49.5564ZM66.6638 38.6501L67.4755 38.066L67.4742 38.0643L66.6638 38.6501ZM56.1951 34.3376L55.3418 34.8591L55.7183 35.4752L56.4216 35.3117L56.1951 34.3376ZM55.5076 33.2126L54.9958 32.3535L54.127 32.8711L54.6543 33.7341L55.5076 33.2126ZM63.6326 31.8376L63.3315 32.7912L63.343 32.7949L63.3545 32.7982L63.6326 31.8376ZM66.5388 33.2126L66.0243 34.0701L67.7828 35.1252L67.5313 33.09L66.5388 33.2126ZM65.4138 28.9939L64.5343 29.4697L64.5352 29.4714L65.4138 28.9939ZM62.6326 26.0251L62.0957 26.8688L62.1046 26.8745L62.1136 26.8799L62.6326 26.0251ZM56.1951 26.0564L55.412 26.6783L55.9943 27.4116L56.7643 26.8786L56.1951 26.0564ZM55.3513 24.9939L54.7072 24.229L53.964 24.8549L54.5682 25.6158L55.3513 24.9939ZM67.1951 23.9626L66.7 24.8315L68.1365 25.6501L68.1945 23.9977L67.1951 23.9626ZM68.1326 18.3064L69.0649 18.6682L69.0666 18.6635L68.1326 18.3064ZM71.1326 13.9314L71.8496 14.6285L71.8544 14.6235L71.1326 13.9314ZM78.2263 8.4939L78.7674 9.3349L77.9262 7.54001L78.2263 8.4939ZM63.8826 8.5564L63.5408 9.49622L63.5477 9.49867L63.8826 8.5564ZM53.8826 8.46265L54.515 9.23736L54.5243 9.22958L53.8826 8.46265ZM52.5701 11.6814L51.8175 12.3399L51.8394 12.365L51.863 12.3885L52.5701 11.6814ZM54.1013 11.6501L53.7074 10.731L53.6992 10.7345L53.691 10.7382L54.1013 11.6501ZM57.0701 12.1501L56.3487 12.8427L56.3558 12.85L56.363 12.8573L57.0701 12.1501ZM56.9763 16.1189L56.2692 15.4118L56.2626 15.4185L56.256 15.4253L56.9763 16.1189ZM51.9451 15.5564L51.1905 16.2126L51.1981 16.2213L51.2059 16.2299L51.9451 15.5564ZM71.1013 4.21265L71.3254 3.23806L71.3216 3.23721L71.1013 4.21265ZM84.5701 4.7439L84.241 3.79958L84.2365 3.80117L84.5701 4.7439ZM84.4451 6.71265L85.1384 7.43327L84.008 5.81321L84.4451 6.71265ZM77.9138 10.8689L77.2231 10.1457L77.2148 10.1538L77.9138 10.8689ZM73.7263 17.1814L74.6565 17.5486L74.6576 17.5458L73.7263 17.1814ZM72.3201 26.9314L71.32 26.9314L71.3202 26.9449L72.3201 26.9314ZM72.5076 40.7751L73.5077 40.7751L73.5075 40.7616L72.5076 40.7751ZM71.2263 48.7126L70.3146 48.3018L70.3108 48.3104L71.2263 48.7126ZM67.3513 53.1189L66.7317 52.334L67.7342 54.0427L67.3513 53.1189ZM72.3513 50.4939L72.9642 51.2841L72.9661 51.2826L72.3513 50.4939ZM75.6951 46.2126L76.6021 46.6338L76.604 46.6297L75.6951 46.2126ZM76.9138 39.4939H77.9138V39.4862L77.9137 39.4785L76.9138 39.4939ZM76.6951 25.3064H75.6951V25.3141L75.6952 25.3218L76.6951 25.3064ZM78.8513 14.0564L79.7659 14.4609L79.7683 14.4554L78.8513 14.0564ZM88.9138 2.3064L88.2278 3.03399L89.3216 4.06524L90.0076 3.33765L90.6936 2.61006L89.5999 1.57881L88.9138 2.3064ZM90.0076 3.33765L89.2698 2.66263C86.5506 5.63475 84.6278 8.29768 83.5654 10.6439L84.4763 11.0564L85.3873 11.4689C86.3249 9.39844 88.0896 6.91554 90.7454 4.01266L90.0076 3.33765ZM84.4763 11.0564L83.5636 10.6478C82.5225 12.9736 82.0076 15.4996 82.0076 18.2126H83.0076H84.0076C84.0076 15.759 84.4718 13.5142 85.3891 11.465L84.4763 11.0564ZM83.0076 18.2126H82.0076C82.0076 19.5184 82.0496 21.8321 82.1329 25.144L83.1326 25.1189L84.1323 25.0937C84.0489 21.7807 84.0076 19.4902 84.0076 18.2126H83.0076ZM83.1326 25.1189L82.1329 25.1427C82.1743 26.8842 82.1951 28.6888 82.1951 30.5564H83.1951H84.1951C84.1951 28.674 84.1742 26.8536 84.1323 25.0951L83.1326 25.1189ZM83.1951 30.5564H82.1951C82.1951 36.2777 81.477 40.4008 80.1457 43.0441L81.0388 43.4939L81.932 43.9437C83.4757 40.8786 84.1951 36.3768 84.1951 30.5564H83.1951ZM81.0388 43.4939L80.1464 43.0427C78.3456 46.6048 75.3767 49.7741 71.1772 52.5331L71.7263 53.3689L72.2754 54.2047C76.7009 51.2971 79.9405 47.883 81.9313 43.9451L81.0388 43.4939ZM71.7263 53.3689L71.175 52.5346C67.6894 54.838 64.7494 55.9001 62.3201 55.9001V56.9001V57.9001C65.3075 57.9001 68.6383 56.6082 72.2777 54.2032L71.7263 53.3689ZM62.3201 56.9001V55.9001C61.6327 55.9001 61.05 55.8331 60.5626 55.7113L60.3201 56.6814L60.0776 57.6515C60.7569 57.8214 61.5075 57.9001 62.3201 57.9001V56.9001ZM60.3201 56.6814L60.537 55.7052C60.0506 55.5971 59.1926 55.3182 57.9229 54.8394L57.5701 55.7751L57.2173 56.7108C58.4892 57.1904 59.4646 57.5157 60.1032 57.6576L60.3201 56.6814ZM57.5701 55.7751L57.9396 54.8459C56.1649 54.1403 54.6207 53.7439 53.3513 53.7439V54.7439V55.7439C54.2486 55.7439 55.5169 56.035 57.2006 56.7044L57.5701 55.7751ZM53.3513 54.7439V53.7439C52.294 53.7439 51.3321 53.9726 50.5398 54.5102L51.1013 55.3376L51.6628 56.1651C52.0373 55.9111 52.5753 55.7439 53.3513 55.7439V54.7439ZM51.1013 55.3376L50.5367 54.5123C49.8841 54.9588 49.4179 55.7708 49.0494 56.6812L49.9763 57.0564L50.9033 57.4316C51.2431 56.592 51.5269 56.2582 51.666 56.163L51.1013 55.3376ZM49.9763 57.0564L50.3675 56.1361L49.1175 55.6048L48.7263 56.5251L48.3352 57.4455L49.5852 57.9767L49.9763 57.0564ZM48.7263 56.5251L49.6935 56.7792C50.2173 54.7849 50.8734 53.4387 51.597 52.629L50.8513 51.9626L50.1057 51.2963C49.0792 52.445 48.3187 54.1404 47.7591 56.2711L48.7263 56.5251ZM50.8513 51.9626L51.5877 52.6393C52.7922 51.3285 54.3873 50.6501 56.4763 50.6501V49.6501V48.6501C53.8987 48.6501 51.7438 49.5135 50.115 51.286L50.8513 51.9626ZM56.4763 49.6501V50.6501C57.3236 50.6501 58.3101 50.822 59.4463 51.1942L59.7576 50.2439L60.0689 49.2936C58.7884 48.8741 57.5874 48.6501 56.4763 48.6501V49.6501ZM59.7576 50.2439L59.4482 51.1948C61.1878 51.7607 62.5983 52.0876 63.6013 52.0876V51.0876V50.0876C62.9377 50.0876 61.7857 49.8521 60.0669 49.2929L59.7576 50.2439ZM63.6013 51.0876V52.0876C65.4549 52.0876 67.0387 51.496 68.2532 50.2562L67.5388 49.5564L66.8245 48.8566C66.039 49.6585 64.9978 50.0876 63.6013 50.0876V51.0876ZM67.5388 49.5564L68.2531 50.2563C69.4859 48.9983 70.0701 47.3675 70.0701 45.4626H69.0701H68.0701C68.0701 46.9328 67.6334 48.0312 66.8246 48.8565L67.5388 49.5564ZM69.0701 45.4626H70.0701C70.0701 42.9035 69.1785 40.4326 67.4755 38.066L66.6638 38.6501L65.8522 39.2343C67.3575 41.326 68.0701 43.3968 68.0701 45.4626H69.0701ZM66.6638 38.6501L67.4742 38.0643C65.0936 34.7715 62.0738 33.0251 58.4451 33.0251V34.0251V35.0251C61.3164 35.0251 63.7757 36.3621 65.8535 39.236L66.6638 38.6501ZM58.4451 34.0251V33.0251C57.7361 33.0251 56.9044 33.146 55.9686 33.3636L56.1951 34.3376L56.4216 35.3117C57.2774 35.1126 57.9458 35.0251 58.4451 35.0251V34.0251ZM56.1951 34.3376L57.0484 33.8162L56.3609 32.6912L55.5076 33.2126L54.6543 33.7341L55.3418 34.8591L56.1951 34.3376ZM55.5076 33.2126L56.0194 34.0717C57.8709 32.9687 59.5385 32.4626 61.0388 32.4626V31.4626V30.4626C59.0808 30.4626 57.061 31.1232 54.9958 32.3535L55.5076 33.2126ZM61.0388 31.4626V32.4626C61.8872 32.4626 62.6489 32.5757 63.3315 32.7912L63.6326 31.8376L63.9337 30.8841C63.033 30.5996 62.0655 30.4626 61.0388 30.4626V31.4626ZM63.6326 31.8376L63.3545 32.7982C64.0282 32.9932 64.9128 33.4032 66.0243 34.0701L66.5388 33.2126L67.0533 32.3552C65.8732 31.6471 64.8203 31.1404 63.9106 30.8771L63.6326 31.8376ZM66.5388 33.2126L67.5313 33.09C67.2961 31.1873 66.9012 29.6364 66.2925 28.5164L65.4138 28.9939L64.5352 29.4714C64.9682 30.2681 65.3232 31.5297 65.5464 33.3353L66.5388 33.2126ZM65.4138 28.9939L66.2934 28.5181C65.5266 27.1007 64.4789 25.9762 63.1516 25.1704L62.6326 26.0251L62.1136 26.8799C63.1196 27.4907 63.9261 28.3454 64.5343 29.4697L65.4138 28.9939ZM62.6326 26.0251L63.1695 25.1815C61.9037 24.376 60.6053 23.9314 59.2888 23.9314V24.9314V25.9314C60.1391 25.9314 61.0698 26.2159 62.0957 26.8688L62.6326 26.0251ZM59.2888 24.9314V23.9314C58.0468 23.9314 56.8198 24.4077 55.6259 25.2342L56.1951 26.0564L56.7643 26.8786C57.7371 26.2051 58.5726 25.9314 59.2888 25.9314V24.9314ZM56.1951 26.0564L56.9782 25.4345L56.1345 24.372L55.3513 24.9939L54.5682 25.6158L55.412 26.6783L56.1951 26.0564ZM55.3513 24.9939L55.9955 25.7588C57.1365 24.7979 58.129 24.1697 58.9761 23.8273L58.6013 22.9001L58.2266 21.973C57.1153 22.4223 55.9411 23.1899 54.7072 24.229L55.3513 24.9939ZM58.6013 22.9001L58.9761 23.8273C59.8203 23.486 60.7844 23.3064 61.8826 23.3064V22.3064V21.3064C60.5642 21.3064 59.3407 21.5226 58.2266 21.973L58.6013 22.9001ZM61.8826 22.3064V23.3064C63.2584 23.3064 64.8573 23.7814 66.7 24.8315L67.1951 23.9626L67.6902 23.0938C65.6579 21.9356 63.7151 21.3064 61.8826 21.3064V22.3064ZM67.1951 23.9626L68.1945 23.9977C68.2759 21.6769 68.5803 19.9168 69.0649 18.6682L68.1326 18.3064L67.2003 17.9446C66.6015 19.4877 66.2809 21.4984 66.1957 23.9276L67.1951 23.9626ZM68.1326 18.3064L69.0666 18.6635C69.5451 17.4121 70.4523 16.0657 71.8496 14.6285L71.1326 13.9314L70.4156 13.2343C68.8962 14.7971 67.8034 16.3673 67.1985 17.9493L68.1326 18.3064ZM71.1326 13.9314L71.8544 14.6235C73.2308 13.1881 75.517 11.4259 78.7674 9.3349L78.2263 8.4939L77.6853 7.65289C74.394 9.77022 71.9511 11.633 70.4108 13.2393L71.1326 13.9314ZM78.2263 8.4939L77.9262 7.54001C74.9961 8.46207 72.6153 8.90015 70.7576 8.90015V9.90015V10.9001C72.8998 10.9001 75.4983 10.4007 78.5265 9.44778L78.2263 8.4939ZM70.7576 9.90015V8.90015C68.8374 8.90015 66.661 8.48251 64.2174 7.61413L63.8826 8.5564L63.5477 9.49867C66.1458 10.422 68.5528 10.9001 70.7576 10.9001V9.90015ZM63.8826 8.5564L64.2243 7.6166C61.6797 6.69128 59.6063 6.1814 58.0701 6.1814V7.1814V8.1814C59.2422 8.1814 61.0438 8.58818 63.5408 9.49619L63.8826 8.5564ZM58.0701 7.1814V6.1814C56.1427 6.1814 54.4936 6.64748 53.2409 7.69571L53.8826 8.46265L54.5243 9.22958C55.3132 8.56948 56.4558 8.1814 58.0701 8.1814V7.1814ZM53.8826 8.46265L53.2502 7.68799C52.1168 8.61324 51.3513 9.72322 51.3513 11.0251H52.3513H53.3513C53.3513 10.5771 53.6067 9.97872 54.515 9.23731L53.8826 8.46265ZM52.3513 11.0251H51.3513C51.3513 11.4819 51.4786 11.9526 51.8175 12.3399L52.5701 11.6814L53.3227 11.0229C53.3307 11.0321 53.3381 11.0425 53.3441 11.053C53.35 11.0635 53.3533 11.0717 53.3547 11.0761C53.3576 11.0847 53.3513 11.0714 53.3513 11.0251H52.3513ZM52.5701 11.6814L51.863 12.3885C52.2112 12.7367 52.6611 12.9314 53.1638 12.9314V11.9314V10.9314C53.1735 10.9314 53.1996 10.9338 53.2316 10.9473C53.263 10.9605 53.278 10.9751 53.2772 10.9743L52.5701 11.6814ZM53.1638 11.9314V12.9314C53.6023 12.9314 54.084 12.7545 54.5117 12.5621L54.1013 11.6501L53.691 10.7382C53.5081 10.8205 53.3685 10.8728 53.2671 10.9033C53.1577 10.9361 53.1319 10.9314 53.1638 10.9314V11.9314ZM54.1013 11.6501L54.4953 12.5693C54.8575 12.414 55.1046 12.3689 55.2576 12.3689V11.3689V10.3689C54.744 10.3689 54.2202 10.5112 53.7074 10.731L54.1013 11.6501ZM55.2576 11.3689V12.3689C55.6878 12.3689 56.0332 12.514 56.3487 12.8427L57.0701 12.1501L57.7915 11.4576C57.107 10.7446 56.2441 10.3689 55.2576 10.3689V11.3689ZM57.0701 12.1501L56.363 12.8573C56.6632 13.1575 56.8201 13.5225 56.8201 14.0251H57.8201H58.8201C58.8201 13.0278 58.477 12.1428 57.7772 11.443L57.0701 12.1501ZM57.8201 14.0251H56.8201C56.8201 14.6073 56.6345 15.0465 56.2692 15.4118L56.9763 16.1189L57.6834 16.826C58.4432 16.0663 58.8201 15.1096 58.8201 14.0251H57.8201ZM56.9763 16.1189L56.256 15.4253C55.9216 15.7726 55.4932 15.9626 54.8826 15.9626V16.9626V17.9626C55.9803 17.9626 56.9478 17.5902 57.6967 16.8125L56.9763 16.1189ZM54.8826 16.9626V15.9626C54.1028 15.9626 53.38 15.6465 52.6843 14.8829L51.9451 15.5564L51.2059 16.2299C52.2185 17.3413 53.4541 17.9626 54.8826 17.9626V16.9626ZM51.9451 15.5564L52.6997 14.9002C52.0588 14.1632 51.6951 13.1543 51.6951 11.7751H50.6951H49.6951C49.6951 13.521 50.1647 15.0329 51.1905 16.2126L51.9451 15.5564ZM50.6951 11.7751H51.6951C51.6951 9.85126 52.5642 8.02006 54.4931 6.26475L53.8201 5.52515L53.1471 4.78554C50.9093 6.82189 49.6951 9.15736 49.6951 11.7751H50.6951ZM53.8201 5.52515L54.4931 6.26475C56.3783 4.54925 58.6848 3.6814 61.4763 3.6814V2.6814V1.6814C58.2262 1.6814 55.4285 2.70938 53.1471 4.78554L53.8201 5.52515ZM61.4763 2.6814V3.6814C63.2485 3.6814 66.3586 4.16688 70.8811 5.18809L71.1013 4.21265L71.3216 3.23721C66.8024 2.21675 63.4958 1.6814 61.4763 1.6814V2.6814ZM71.1013 4.21265L70.8773 5.18723C74.5272 6.02628 77.4573 6.46265 79.6326 6.46265V5.46265V4.46265C77.6829 4.46265 74.9255 4.06568 71.3254 3.23807L71.1013 4.21265ZM79.6326 5.46265V6.46265C81.6467 6.46265 83.4123 6.21434 84.9037 5.68662L84.5701 4.7439L84.2365 3.80117C83.0196 4.23178 81.4935 4.46265 79.6326 4.46265V5.46265ZM84.5701 4.7439L84.8992 5.6882C86.3969 5.16628 87.9359 4.29523 89.5156 3.10508L88.9138 2.3064L88.3121 1.50771C86.8501 2.60923 85.4933 3.36318 84.241 3.79959L84.5701 4.7439ZM84.4451 6.71265L84.008 5.81321C81.0123 7.26888 78.7284 8.70791 77.2231 10.1458L77.9138 10.8689L78.6046 11.592C79.891 10.3632 81.9612 9.03141 84.8821 7.61208L84.4451 6.71265ZM77.9138 10.8689L77.2148 10.1538C75.2601 12.0646 73.7847 14.2881 72.7951 16.817L73.7263 17.1814L74.6576 17.5458C75.543 15.2831 76.8593 13.2982 78.6129 11.584L77.9138 10.8689ZM73.7263 17.1814L72.7962 16.8142C71.7929 19.356 71.3201 22.7485 71.3201 26.9314H72.3201H73.3201C73.3201 22.8642 73.7848 19.7568 74.6565 17.5486L73.7263 17.1814ZM72.3201 26.9314L71.3202 26.9449L71.5077 40.7887L72.5076 40.7751L73.5075 40.7616L73.32 26.9179L72.3201 26.9314ZM72.5076 40.7751H71.5076C71.5076 44.1082 71.0852 46.5916 70.3146 48.3019L71.2263 48.7126L72.1381 49.1234C73.0759 47.042 73.5076 44.2338 73.5076 40.7751H72.5076ZM71.2263 48.7126L70.3108 48.3104C69.8029 49.4663 68.659 50.8124 66.7317 52.334L67.3513 53.1189L67.971 53.9038C70.002 52.3003 71.4414 50.709 72.1419 49.1149L71.2263 48.7126ZM67.3513 53.1189L67.7342 54.0427C70.0673 53.0758 71.8347 52.16 72.9642 51.2841L72.3513 50.4939L71.7385 49.7037C70.8263 50.4111 69.2604 51.2453 66.9685 52.1951L67.3513 53.1189ZM72.3513 50.4939L72.9661 51.2826C74.5172 50.0737 75.7278 48.5168 76.6021 46.6338L75.6951 46.2126L74.7881 45.7915C74.0374 47.4085 73.0189 48.7058 71.7366 49.7052L72.3513 50.4939ZM75.6951 46.2126L76.604 46.6297C77.4951 44.6874 77.9138 42.2936 77.9138 39.4939H76.9138H75.9138C75.9138 42.1109 75.52 44.1962 74.7862 45.7956L75.6951 46.2126ZM76.9138 39.4939L77.9137 39.4785L77.695 25.291L76.6951 25.3064L75.6952 25.3218L75.914 39.5093L76.9138 39.4939ZM76.6951 25.3064H77.6951C77.6951 21.1689 78.3947 17.561 79.7659 14.4609L78.8513 14.0564L77.9368 13.6519C76.433 17.0517 75.6951 20.9439 75.6951 25.3064H76.6951ZM78.8513 14.0564L79.7683 14.4554C80.6739 12.3745 82.4363 10.033 85.1384 7.43327L84.4451 6.71265L83.7518 5.99202C80.9538 8.68396 78.9871 11.2383 77.9344 13.6574L78.8513 14.0564Z" fill="#EAA200" mask="url(#path-1-outside-1_19_19)"/>
</g>
<defs>
<filter id="filter0_d_19_19" x="0" y="0" width="93.4104" height="61.3747" filterUnits="userSpaceOnUse" color-interpolation-filters="sRGB">
<feFlood flood-opacity="0" result="BackgroundImageFix"/>
<feColorMatrix in="SourceAlpha" type="matrix" values="0 0 0 0 0 0 0 0 0 0 0 0 0 0 0 0 0 0 127 0" result="hardAlpha"/>
<feOffset dy="1"/>
<feGaussianBlur stdDeviation="1"/>
<feComposite in2="hardAlpha" operator="out"/>
<feColorMatrix type="matrix" values="0 0 0 0 0.94902 0 0 0 0 0.717647 0 0 0 0 0.0196078 0 0 0 0.7 0"/>
<feBlend mode="normal" in2="BackgroundImageFix" result="effect1_dropShadow_19_19"/>
<feBlend mode="normal" in="SourceGraphic" in2="effect1_dropShadow_19_19" result="shape"/>
</filter>
</defs>
</svg>
