<svg width="429" height="115" viewBox="0 0 429 115" fill="none" xmlns="http://www.w3.org/2000/svg">
<g filter="url(#filter0_d_19_16)">
<mask id="path-1-outside-1_19_16" maskUnits="userSpaceOnUse" x="5" y="36" width="411" height="73" fill="black">
<rect fill="white" x="5" y="36" width="411" height="73"/>
<path d="M40.896 71.536C43.328 71.92 45.536 72.912 47.52 74.512C49.568 76.112 51.168 78.096 52.32 80.464C53.536 82.832 54.144 85.36 54.144 88.048C54.144 91.44 53.28 94.512 51.552 97.264C49.824 99.952 47.296 102.096 43.968 103.696C40.704 105.232 36.832 106 32.352 106H7.392V39.088H31.392C35.936 39.088 39.808 39.856 43.008 41.392C46.208 42.864 48.608 44.88 50.208 47.44C51.808 50 52.608 52.88 52.608 56.08C52.608 60.048 51.52 63.344 49.344 65.968C47.232 68.528 44.416 70.384 40.896 71.536ZM16.128 67.984H30.816C34.912 67.984 38.08 67.024 40.32 65.104C42.56 63.184 43.68 60.528 43.68 57.136C43.68 53.744 42.56 51.088 40.32 49.168C38.08 47.248 34.848 46.288 30.624 46.288H16.128V67.984ZM31.584 98.8C35.936 98.8 39.328 97.776 41.76 95.728C44.192 93.68 45.408 90.832 45.408 87.184C45.408 83.472 44.128 80.56 41.568 78.448C39.008 76.272 35.584 75.184 31.296 75.184H16.128V98.8H31.584ZM65.403 39.088V106H56.667V39.088H65.403ZM101.028 106.672C94.82 106.672 89.156 105.232 84.036 102.352C78.916 99.408 74.852 95.344 71.844 90.16C68.9 84.912 67.428 79.024 67.428 72.496C67.428 65.968 68.9 60.112 71.844 54.928C74.852 49.68 78.916 45.616 84.036 42.736C89.156 39.792 94.82 38.32 101.028 38.32C107.3 38.32 112.996 39.792 118.116 42.736C123.236 45.616 127.268 49.648 130.212 54.832C133.156 60.016 134.628 65.904 134.628 72.496C134.628 79.088 133.156 84.976 130.212 90.16C127.268 95.344 123.236 99.408 118.116 102.352C112.996 105.232 107.3 106.672 101.028 106.672ZM101.028 99.088C105.7 99.088 109.892 98 113.604 95.824C117.38 93.648 120.324 90.544 122.436 86.512C124.612 82.48 125.7 77.808 125.7 72.496C125.7 67.12 124.612 62.448 122.436 58.48C120.324 54.448 117.412 51.344 113.7 49.168C109.988 46.992 105.764 45.904 101.028 45.904C96.292 45.904 92.068 46.992 88.356 49.168C84.644 51.344 81.7 54.448 79.524 58.48C77.412 62.448 76.356 67.12 76.356 72.496C76.356 77.808 77.412 82.48 79.524 86.512C81.7 90.544 84.644 93.648 88.356 95.824C92.132 98 96.356 99.088 101.028 99.088ZM187.249 58.48C185.393 54.576 182.705 51.568 179.185 49.456C175.665 47.28 171.569 46.192 166.897 46.192C162.225 46.192 158.001 47.28 154.225 49.456C150.513 51.568 147.569 54.64 145.393 58.672C143.281 62.64 142.225 67.248 142.225 72.496C142.225 77.744 143.281 82.352 145.393 86.32C147.569 90.288 150.513 93.36 154.225 95.536C158.001 97.648 162.225 98.704 166.897 98.704C173.425 98.704 178.801 96.752 183.025 92.848C187.249 88.944 189.713 83.664 190.417 77.008H163.729V69.904H199.729V76.624C199.217 82.128 197.489 87.184 194.545 91.792C191.601 96.336 187.729 99.952 182.929 102.64C178.129 105.264 172.785 106.576 166.897 106.576C160.689 106.576 155.025 105.136 149.905 102.256C144.785 99.312 140.721 95.248 137.713 90.064C134.769 84.88 133.297 79.024 133.297 72.496C133.297 65.968 134.769 60.112 137.713 54.928C140.721 49.68 144.785 45.616 149.905 42.736C155.025 39.792 160.689 38.32 166.897 38.32C174.001 38.32 180.273 40.08 185.713 43.6C191.217 47.12 195.217 52.08 197.713 58.48H187.249ZM236.912 106L220.976 78.64H210.416V106H201.68V39.088H223.28C228.336 39.088 232.592 39.952 236.048 41.68C239.568 43.408 242.192 45.744 243.92 48.688C245.648 51.632 246.512 54.992 246.512 58.768C246.512 63.376 245.168 67.44 242.48 70.96C239.856 74.48 235.888 76.816 230.576 77.968L247.376 106H236.912ZM210.416 71.632H223.28C228.016 71.632 231.568 70.48 233.936 68.176C236.304 65.808 237.488 62.672 237.488 58.768C237.488 54.8 236.304 51.728 233.936 49.552C231.632 47.376 228.08 46.288 223.28 46.288H210.416V71.632ZM290.038 91.12H260.854L255.478 106H246.262L270.454 39.472H280.534L304.63 106H295.414L290.038 91.12ZM287.542 84.016L275.446 50.224L263.35 84.016H287.542ZM343.397 39.088V46.192H314.309V68.752H337.925V75.856H314.309V106H305.573V39.088H343.397ZM353.084 39.088V106H344.348V39.088H353.084ZM397.925 91.12H368.741L363.365 106H354.149L378.341 39.472H388.421L412.517 106H403.301L397.925 91.12ZM395.429 84.016L383.333 50.224L371.237 84.016H395.429Z"/>
</mask>
<path d="M40.896 71.536C43.328 71.92 45.536 72.912 47.52 74.512C49.568 76.112 51.168 78.096 52.32 80.464C53.536 82.832 54.144 85.36 54.144 88.048C54.144 91.44 53.28 94.512 51.552 97.264C49.824 99.952 47.296 102.096 43.968 103.696C40.704 105.232 36.832 106 32.352 106H7.392V39.088H31.392C35.936 39.088 39.808 39.856 43.008 41.392C46.208 42.864 48.608 44.88 50.208 47.44C51.808 50 52.608 52.88 52.608 56.08C52.608 60.048 51.52 63.344 49.344 65.968C47.232 68.528 44.416 70.384 40.896 71.536ZM16.128 67.984H30.816C34.912 67.984 38.08 67.024 40.32 65.104C42.56 63.184 43.68 60.528 43.68 57.136C43.68 53.744 42.56 51.088 40.32 49.168C38.08 47.248 34.848 46.288 30.624 46.288H16.128V67.984ZM31.584 98.8C35.936 98.8 39.328 97.776 41.76 95.728C44.192 93.68 45.408 90.832 45.408 87.184C45.408 83.472 44.128 80.56 41.568 78.448C39.008 76.272 35.584 75.184 31.296 75.184H16.128V98.8H31.584ZM65.403 39.088V106H56.667V39.088H65.403ZM101.028 106.672C94.82 106.672 89.156 105.232 84.036 102.352C78.916 99.408 74.852 95.344 71.844 90.16C68.9 84.912 67.428 79.024 67.428 72.496C67.428 65.968 68.9 60.112 71.844 54.928C74.852 49.68 78.916 45.616 84.036 42.736C89.156 39.792 94.82 38.32 101.028 38.32C107.3 38.32 112.996 39.792 118.116 42.736C123.236 45.616 127.268 49.648 130.212 54.832C133.156 60.016 134.628 65.904 134.628 72.496C134.628 79.088 133.156 84.976 130.212 90.16C127.268 95.344 123.236 99.408 118.116 102.352C112.996 105.232 107.3 106.672 101.028 106.672ZM101.028 99.088C105.7 99.088 109.892 98 113.604 95.824C117.38 93.648 120.324 90.544 122.436 86.512C124.612 82.48 125.7 77.808 125.7 72.496C125.7 67.12 124.612 62.448 122.436 58.48C120.324 54.448 117.412 51.344 113.7 49.168C109.988 46.992 105.764 45.904 101.028 45.904C96.292 45.904 92.068 46.992 88.356 49.168C84.644 51.344 81.7 54.448 79.524 58.48C77.412 62.448 76.356 67.12 76.356 72.496C76.356 77.808 77.412 82.48 79.524 86.512C81.7 90.544 84.644 93.648 88.356 95.824C92.132 98 96.356 99.088 101.028 99.088ZM187.249 58.48C185.393 54.576 182.705 51.568 179.185 49.456C175.665 47.28 171.569 46.192 166.897 46.192C162.225 46.192 158.001 47.28 154.225 49.456C150.513 51.568 147.569 54.64 145.393 58.672C143.281 62.64 142.225 67.248 142.225 72.496C142.225 77.744 143.281 82.352 145.393 86.32C147.569 90.288 150.513 93.36 154.225 95.536C158.001 97.648 162.225 98.704 166.897 98.704C173.425 98.704 178.801 96.752 183.025 92.848C187.249 88.944 189.713 83.664 190.417 77.008H163.729V69.904H199.729V76.624C199.217 82.128 197.489 87.184 194.545 91.792C191.601 96.336 187.729 99.952 182.929 102.64C178.129 105.264 172.785 106.576 166.897 106.576C160.689 106.576 155.025 105.136 149.905 102.256C144.785 99.312 140.721 95.248 137.713 90.064C134.769 84.88 133.297 79.024 133.297 72.496C133.297 65.968 134.769 60.112 137.713 54.928C140.721 49.68 144.785 45.616 149.905 42.736C155.025 39.792 160.689 38.32 166.897 38.32C174.001 38.32 180.273 40.08 185.713 43.6C191.217 47.12 195.217 52.08 197.713 58.48H187.249ZM236.912 106L220.976 78.64H210.416V106H201.68V39.088H223.28C228.336 39.088 232.592 39.952 236.048 41.68C239.568 43.408 242.192 45.744 243.92 48.688C245.648 51.632 246.512 54.992 246.512 58.768C246.512 63.376 245.168 67.44 242.48 70.96C239.856 74.48 235.888 76.816 230.576 77.968L247.376 106H236.912ZM210.416 71.632H223.28C228.016 71.632 231.568 70.48 233.936 68.176C236.304 65.808 237.488 62.672 237.488 58.768C237.488 54.8 236.304 51.728 233.936 49.552C231.632 47.376 228.08 46.288 223.28 46.288H210.416V71.632ZM290.038 91.12H260.854L255.478 106H246.262L270.454 39.472H280.534L304.63 106H295.414L290.038 91.12ZM287.542 84.016L275.446 50.224L263.35 84.016H287.542ZM343.397 39.088V46.192H314.309V68.752H337.925V75.856H314.309V106H305.573V39.088H343.397ZM353.084 39.088V106H344.348V39.088H353.084ZM397.925 91.12H368.741L363.365 106H354.149L378.341 39.472H388.421L412.517 106H403.301L397.925 91.12ZM395.429 84.016L383.333 50.224L371.237 84.016H395.429Z" fill="#191919" fill-opacity="0.65" shape-rendering="crispEdges"/>
<path d="M40.896 71.536L40.2739 69.6352L40.5841 73.5115L40.896 71.536ZM47.52 74.512L46.2645 76.0688L46.2765 76.0785L46.2887 76.088L47.52 74.512ZM52.32 80.464L50.5215 81.3389L50.531 81.3584L50.5409 81.3776L52.32 80.464ZM51.552 97.264L53.2344 98.3455L53.2401 98.3366L53.2458 98.3275L51.552 97.264ZM43.968 103.696L44.8196 105.506L44.8271 105.502L44.8346 105.499L43.968 103.696ZM7.392 106H5.392V108H7.392V106ZM7.392 39.088V37.088H5.392V39.088H7.392ZM43.008 41.392L42.1425 43.195L42.1573 43.2021L42.1722 43.209L43.008 41.392ZM50.208 47.44L48.512 48.5L48.512 48.5L50.208 47.44ZM49.344 65.968L47.8045 64.6913L47.8013 64.6952L49.344 65.968ZM16.128 67.984H14.128V69.984H16.128V67.984ZM40.32 49.168L39.0184 50.6865L39.0184 50.6865L40.32 49.168ZM16.128 46.288V44.288H14.128V46.288H16.128ZM41.76 95.728L43.0483 97.2578L43.0483 97.2578L41.76 95.728ZM41.568 78.448L40.2727 79.9719L40.2839 79.9814L40.2952 79.9907L41.568 78.448ZM16.128 75.184V73.184H14.128V75.184H16.128ZM16.128 98.8H14.128V100.8H16.128V98.8ZM40.896 71.536L40.5841 73.5115C42.6578 73.839 44.543 74.6805 46.2645 76.0688L47.52 74.512L48.7755 72.9552C46.529 71.1435 43.9982 70.001 41.2079 69.5605L40.896 71.536ZM47.52 74.512L46.2887 76.088C48.0935 77.498 49.5009 79.241 50.5215 81.3389L52.32 80.464L54.1185 79.5891C52.8351 76.951 51.0425 74.726 48.7513 72.936L47.52 74.512ZM52.32 80.464L50.5409 81.3776C51.6102 83.4601 52.144 85.6745 52.144 88.048H54.144H56.144C56.144 85.0455 55.4618 82.2039 54.0991 79.5504L52.32 80.464ZM54.144 88.048H52.144C52.144 91.0811 51.3771 93.7815 49.8582 96.2005L51.552 97.264L53.2458 98.3275C55.1829 95.2425 56.144 91.7989 56.144 88.048H54.144ZM51.552 97.264L49.8696 96.1825C48.3711 98.5135 46.1489 100.428 43.1014 101.893L43.968 103.696L44.8346 105.499C48.4431 103.764 51.2769 101.391 53.2344 98.3455L51.552 97.264ZM43.968 103.696L43.1164 101.886C40.1752 103.27 36.607 104 32.352 104V106V108C37.057 108 41.2328 107.194 44.8196 105.506L43.968 103.696ZM32.352 106V104H7.392V106V108H32.352V106ZM7.392 106H9.392V39.088H7.392H5.392V106H7.392ZM7.392 39.088V41.088H31.392V39.088V37.088H7.392V39.088ZM31.392 39.088V41.088C35.7175 41.088 39.2773 41.8197 42.1425 43.195L43.008 41.392L43.8735 39.589C40.3387 37.8923 36.1545 37.088 31.392 37.088V39.088ZM43.008 41.392L42.1722 43.209C45.0782 44.5457 47.1514 46.323 48.512 48.5L50.208 47.44L51.904 46.38C50.0646 43.437 47.3378 41.1823 43.8438 39.575L43.008 41.392ZM50.208 47.44L48.512 48.5C49.9012 50.7228 50.608 53.2313 50.608 56.08H52.608H54.608C54.608 52.5287 53.7148 49.2772 51.904 46.38L50.208 47.44ZM52.608 56.08H50.608C50.608 59.6622 49.6353 62.4836 47.8045 64.6913L49.344 65.968L50.8835 67.2447C53.4047 64.2044 54.608 60.4338 54.608 56.08H52.608ZM49.344 65.968L47.8013 64.6952C45.9578 66.9298 43.4768 68.587 40.2739 69.6352L40.896 71.536L41.5181 73.4368C45.3552 72.181 48.5062 70.1262 50.8867 67.2408L49.344 65.968ZM16.128 67.984V69.984H30.816V67.984V65.984H16.128V67.984ZM30.816 67.984V69.984C35.2048 69.984 38.9 68.9553 41.6216 66.6225L40.32 65.104L39.0184 63.5855C37.26 65.0927 34.6192 65.984 30.816 65.984V67.984ZM40.32 65.104L41.6216 66.6225C44.3737 64.2635 45.68 61.0146 45.68 57.136H43.68H41.68C41.68 60.0414 40.7463 62.1045 39.0184 63.5855L40.32 65.104ZM43.68 57.136H45.68C45.68 53.2574 44.3737 50.0085 41.6216 47.6495L40.32 49.168L39.0184 50.6865C40.7463 52.1675 41.68 54.2306 41.68 57.136H43.68ZM40.32 49.168L41.6216 47.6495C38.8902 45.3083 35.1226 44.288 30.624 44.288V46.288V48.288C34.5734 48.288 37.2698 49.1877 39.0184 50.6865L40.32 49.168ZM30.624 46.288V44.288H16.128V46.288V48.288H30.624V46.288ZM16.128 46.288H14.128V67.984H16.128H18.128V46.288H16.128ZM31.584 98.8V100.8C36.2339 100.8 40.1421 99.7051 43.0483 97.2578L41.76 95.728L40.4717 94.1982C38.5139 95.8469 35.6381 96.8 31.584 96.8V98.8ZM41.76 95.728L43.0483 97.2578C46.0009 94.7714 47.408 91.3249 47.408 87.184H45.408H43.408C43.408 90.3391 42.3831 92.5886 40.4717 94.1982L41.76 95.728ZM45.408 87.184H47.408C47.408 82.9549 45.9196 79.4452 42.8408 76.9053L41.568 78.448L40.2952 79.9907C42.3365 81.6747 43.408 83.9891 43.408 87.184H45.408ZM41.568 78.448L42.8633 76.9241C39.8511 74.3637 35.9243 73.184 31.296 73.184V75.184V77.184C35.2437 77.184 38.1649 78.1803 40.2727 79.9719L41.568 78.448ZM31.296 75.184V73.184H16.128V75.184V77.184H31.296V75.184ZM16.128 75.184H14.128V98.8H16.128H18.128V75.184H16.128ZM16.128 98.8V100.8H31.584V98.8V96.8H16.128V98.8ZM65.403 39.088H67.403V37.088H65.403V39.088ZM65.403 106V108H67.403V106H65.403ZM56.667 106H54.667V108H56.667V106ZM56.667 39.088V37.088H54.667V39.088H56.667ZM65.403 39.088H63.403V106H65.403H67.403V39.088H65.403ZM65.403 106V104H56.667V106V108H65.403V106ZM56.667 106H58.667V39.088H56.667H54.667V106H56.667ZM56.667 39.088V41.088H65.403V39.088V37.088H56.667V39.088ZM84.036 102.352L83.0391 104.086L83.0472 104.091L83.0555 104.095L84.036 102.352ZM71.844 90.16L70.0997 91.1385L70.1068 91.1512L70.1141 91.1638L71.844 90.16ZM71.844 54.928L70.1088 53.9334L70.1049 53.9403L71.844 54.928ZM84.036 42.736L85.0165 44.4791L85.0248 44.4745L85.0329 44.4698L84.036 42.736ZM118.116 42.736L117.119 44.4698L117.127 44.4745L117.135 44.4791L118.116 42.736ZM130.212 54.832L131.951 53.8443L131.951 53.8443L130.212 54.832ZM118.116 102.352L119.097 104.095L119.105 104.091L119.113 104.086L118.116 102.352ZM113.604 95.824L112.605 94.0911L112.599 94.0948L112.593 94.0986L113.604 95.824ZM122.436 86.512L120.676 85.5621L120.67 85.573L120.664 85.584L122.436 86.512ZM122.436 58.48L120.664 59.408L120.673 59.4249L120.682 59.4417L122.436 58.48ZM113.7 49.168L112.689 50.8934L112.689 50.8934L113.7 49.168ZM88.356 49.168L89.3674 50.8934L89.3674 50.8934L88.356 49.168ZM79.524 58.48L77.7639 57.5301L77.7585 57.5403L79.524 58.48ZM79.524 86.512L77.7523 87.44L77.7581 87.451L77.764 87.4619L79.524 86.512ZM88.356 95.824L87.3446 97.5494L87.351 97.5532L87.3574 97.5569L88.356 95.824ZM101.028 106.672V104.672C95.1433 104.672 89.82 103.311 85.0165 100.609L84.036 102.352L83.0555 104.095C88.492 107.153 94.4967 108.672 101.028 108.672V106.672ZM84.036 102.352L85.0329 100.618C80.2217 97.8517 76.4086 94.0415 73.5739 89.1562L71.844 90.16L70.1141 91.1638C73.2954 96.6465 77.6103 100.964 83.0391 104.086L84.036 102.352ZM71.844 90.16L73.5883 89.1815C70.826 84.2574 69.428 78.7112 69.428 72.496H67.428H65.428C65.428 79.3368 66.974 85.5666 70.0997 91.1385L71.844 90.16ZM67.428 72.496H69.428C69.428 66.2805 70.8261 60.7705 73.5831 55.9156L71.844 54.928L70.1049 53.9403C66.9739 59.4535 65.428 65.6555 65.428 72.496H67.428ZM71.844 54.928L73.5792 55.9226C76.4133 50.9778 80.2207 47.1768 85.0165 44.4791L84.036 42.736L83.0555 40.9928C77.6113 44.0552 73.2906 48.3822 70.1088 53.9334L71.844 54.928ZM84.036 42.736L85.0329 44.4698C89.8339 41.7093 95.1513 40.32 101.028 40.32V38.32V36.32C94.4887 36.32 88.4781 37.8747 83.0391 41.0022L84.036 42.736ZM101.028 38.32V40.32C106.973 40.32 112.321 41.7111 117.119 44.4698L118.116 42.736L119.113 41.0022C113.671 37.8729 107.627 36.32 101.028 36.32V38.32ZM118.116 42.736L117.135 44.4791C121.934 47.1782 125.706 50.9468 128.473 55.8196L130.212 54.832L131.951 53.8443C128.83 48.3492 124.538 44.0538 119.097 40.9928L118.116 42.736ZM130.212 54.832L128.473 55.8196C131.228 60.6716 132.628 66.2127 132.628 72.496H134.628H136.628C136.628 65.5952 135.084 59.3604 131.951 53.8443L130.212 54.832ZM134.628 72.496H132.628C132.628 78.7792 131.228 84.3204 128.473 89.1723L130.212 90.16L131.951 91.1476C135.084 85.6316 136.628 79.3967 136.628 72.496H134.628ZM130.212 90.16L128.473 89.1723C125.703 94.0489 121.926 97.8539 117.119 100.618L118.116 102.352L119.113 104.086C124.546 100.962 128.833 96.6391 131.951 91.1476L130.212 90.16ZM118.116 102.352L117.135 100.609C112.335 103.309 106.981 104.672 101.028 104.672V106.672V108.672C107.619 108.672 113.657 107.155 119.097 104.095L118.116 102.352ZM101.028 99.088V101.088C106.024 101.088 110.571 99.9205 114.615 97.5494L113.604 95.824L112.593 94.0986C109.213 96.0795 105.376 97.088 101.028 97.088V99.088ZM113.604 95.824L114.603 97.5569C118.722 95.1827 121.928 91.7925 124.208 87.44L122.436 86.512L120.664 85.584C118.72 89.2955 116.038 92.1133 112.605 94.0911L113.604 95.824ZM122.436 86.512L124.196 87.4619C126.553 83.0946 127.7 78.0864 127.7 72.496H125.7H123.7C123.7 77.5296 122.671 81.8654 120.676 85.5621L122.436 86.512ZM125.7 72.496H127.7C127.7 66.847 126.555 61.8319 124.19 57.5183L122.436 58.48L120.682 59.4417C122.669 63.0641 123.7 67.393 123.7 72.496H125.7ZM122.436 58.48L124.208 57.552C121.932 53.2083 118.766 49.8191 114.711 47.4426L113.7 49.168L112.689 50.8934C116.059 52.8689 118.716 55.6877 120.664 59.408L122.436 58.48ZM113.7 49.168L114.711 47.4426C110.662 45.069 106.083 43.904 101.028 43.904V45.904V47.904C105.445 47.904 109.314 48.915 112.689 50.8934L113.7 49.168ZM101.028 45.904V43.904C95.9733 43.904 91.3936 45.069 87.3446 47.4426L88.356 49.168L89.3674 50.8934C92.7424 48.915 96.6107 47.904 101.028 47.904V45.904ZM88.356 49.168L87.3446 47.4426C83.2961 49.8158 80.1021 53.1977 77.764 57.5301L79.524 58.48L81.284 59.4299C83.2979 55.6983 85.9919 52.8722 89.3674 50.8934L88.356 49.168ZM79.524 58.48L77.7585 57.5403C75.4651 61.8492 74.356 66.8562 74.356 72.496H76.356H78.356C78.356 67.3838 79.3589 63.0468 81.2895 59.4197L79.524 58.48ZM76.356 72.496H74.356C74.356 78.0772 75.4671 83.0773 77.7523 87.44L79.524 86.512L81.2957 85.584C79.3569 81.8827 78.356 77.5388 78.356 72.496H76.356ZM79.524 86.512L77.764 87.4619C80.1021 91.7943 83.2961 95.1762 87.3446 97.5494L88.356 95.824L89.3674 94.0986C85.9919 92.1198 83.2979 89.2937 81.284 85.5621L79.524 86.512ZM88.356 95.824L87.3574 97.5569C91.459 99.9205 96.0316 101.088 101.028 101.088V99.088V97.088C96.6804 97.088 92.805 96.0795 89.3546 94.0911L88.356 95.824ZM187.249 58.48L185.442 59.3387L185.985 60.48H187.249V58.48ZM179.185 49.456L178.133 51.1572L178.144 51.1642L178.156 51.171L179.185 49.456ZM154.225 49.456L155.214 51.1943L155.223 51.1889L154.225 49.456ZM145.393 58.672L143.633 57.7221L143.627 57.7323L145.393 58.672ZM145.393 86.32L143.627 87.2597L143.633 87.2707L143.639 87.2817L145.393 86.32ZM154.225 95.536L153.213 97.2614L153.231 97.2716L153.248 97.2815L154.225 95.536ZM183.025 92.848L184.382 94.3168L184.382 94.3168L183.025 92.848ZM190.417 77.008L192.406 77.2184L192.639 75.008H190.417V77.008ZM163.729 77.008H161.729V79.008H163.729V77.008ZM163.729 69.904V67.904H161.729V69.904H163.729ZM199.729 69.904H201.729V67.904H199.729V69.904ZM199.729 76.624L201.72 76.8092L201.729 76.7168V76.624H199.729ZM194.545 91.792L196.223 92.8795L196.23 92.8688L194.545 91.792ZM182.929 102.64L183.888 104.395L183.897 104.39L183.906 104.385L182.929 102.64ZM149.905 102.256L148.908 103.99L148.916 103.995L148.924 103.999L149.905 102.256ZM137.713 90.064L135.974 91.0516L135.978 91.0597L135.983 91.0678L137.713 90.064ZM137.713 54.928L135.978 53.9334L135.974 53.9403L137.713 54.928ZM149.905 42.736L150.885 44.4791L150.894 44.4745L150.902 44.4698L149.905 42.736ZM185.713 43.6L184.626 45.2792L184.635 45.2849L185.713 43.6ZM197.713 58.48V60.48H200.639L199.576 57.7533L197.713 58.48ZM187.249 58.48L189.055 57.6213C187.039 53.3814 184.09 50.0667 180.214 47.741L179.185 49.456L178.156 51.171C181.32 53.0693 183.746 55.7706 185.442 59.3387L187.249 58.48ZM179.185 49.456L180.236 47.7548C176.361 45.3591 171.891 44.192 166.897 44.192V46.192V48.192C171.246 48.192 174.968 49.2009 178.133 51.1572L179.185 49.456ZM166.897 46.192V44.192C161.9 44.192 157.328 45.3595 153.226 47.7231L154.225 49.456L155.223 51.1889C158.674 49.2005 162.549 48.192 166.897 48.192V46.192ZM154.225 49.456L153.236 47.7177C149.174 50.0286 145.973 53.3853 143.633 57.7221L145.393 58.672L147.153 59.6219C149.164 55.8947 151.851 53.1074 155.214 51.1943L154.225 49.456ZM145.393 58.672L143.627 57.7323C141.337 62.0346 140.225 66.9753 140.225 72.496H142.225H144.225C144.225 67.5207 145.224 63.2454 147.158 59.6117L145.393 58.672ZM142.225 72.496H140.225C140.225 78.0167 141.337 82.9574 143.627 87.2597L145.393 86.32L147.158 85.3803C145.224 81.7466 144.225 77.4713 144.225 72.496H142.225ZM145.393 86.32L143.639 87.2817C145.98 91.5495 149.173 94.8929 153.213 97.2614L154.225 95.536L155.236 93.8106C151.852 91.8271 149.158 89.0265 147.146 85.3583L145.393 86.32ZM154.225 95.536L153.248 97.2815C157.346 99.5736 161.911 100.704 166.897 100.704V98.704V96.704C162.538 96.704 158.655 95.7224 155.201 93.7905L154.225 95.536ZM166.897 98.704V100.704C173.855 100.704 179.738 98.6089 184.382 94.3168L183.025 92.848L181.667 91.3792C177.863 94.8951 172.995 96.704 166.897 96.704V98.704ZM183.025 92.848L184.382 94.3168C189.02 90.0308 191.66 84.2729 192.406 77.2184L190.417 77.008L188.428 76.7976C187.766 83.0551 185.478 87.8572 181.667 91.3792L183.025 92.848ZM190.417 77.008V75.008H163.729V77.008V79.008H190.417V77.008ZM163.729 77.008H165.729V69.904H163.729H161.729V77.008H163.729ZM163.729 69.904V71.904H199.729V69.904V67.904H163.729V69.904ZM199.729 69.904H197.729V76.624H199.729H201.729V69.904H199.729ZM199.729 76.624L197.737 76.4388C197.255 81.629 195.63 86.3788 192.859 90.7152L194.545 91.792L196.23 92.8688C199.348 87.9892 201.179 82.627 201.72 76.8092L199.729 76.624ZM194.545 91.792L192.866 90.7045C190.102 94.971 186.473 98.3632 181.952 100.895L182.929 102.64L183.906 104.385C188.985 101.541 193.099 97.701 196.223 92.8795L194.545 91.792ZM182.929 102.64L181.969 100.885C177.486 103.336 172.476 104.576 166.897 104.576V106.576V108.576C173.094 108.576 178.772 107.192 183.888 104.395L182.929 102.64ZM166.897 106.576V104.576C161.012 104.576 155.689 103.215 150.885 100.513L149.905 102.256L148.924 103.999C154.361 107.057 160.365 108.576 166.897 108.576V106.576ZM149.905 102.256L150.902 100.522C146.09 97.7557 142.277 93.9455 139.443 89.0602L137.713 90.064L135.983 91.0678C139.164 96.5505 143.479 100.868 148.908 103.99L149.905 102.256ZM137.713 90.064L139.452 89.0763C136.695 84.2215 135.297 78.7115 135.297 72.496H133.297H131.297C131.297 79.3365 132.843 85.5385 135.974 91.0516L137.713 90.064ZM133.297 72.496H135.297C135.297 66.2805 136.695 60.7705 139.452 55.9156L137.713 54.928L135.974 53.9403C132.843 59.4535 131.297 65.6555 131.297 72.496H133.297ZM137.713 54.928L139.448 55.9226C142.282 50.9778 146.089 47.1768 150.885 44.4791L149.905 42.736L148.924 40.9928C143.48 44.0552 139.159 48.3822 135.978 53.9334L137.713 54.928ZM149.905 42.736L150.902 44.4698C155.703 41.7093 161.02 40.32 166.897 40.32V38.32V36.32C160.357 36.32 154.347 37.8747 148.908 41.0022L149.905 42.736ZM166.897 38.32V40.32C173.654 40.32 179.541 41.9886 184.626 45.2791L185.713 43.6L186.799 41.9209C181.005 38.1714 174.348 36.32 166.897 36.32V38.32ZM185.713 43.6L184.635 45.2849C189.763 48.5645 193.499 53.1796 195.849 59.2067L197.713 58.48L199.576 57.7533C196.935 50.9804 192.67 45.6755 186.79 41.9151L185.713 43.6ZM197.713 58.48V56.48H187.249V58.48V60.48H197.713V58.48ZM236.912 106L235.183 107.007L235.762 108H236.912V106ZM220.976 78.64L222.704 77.6334L222.125 76.64H220.976V78.64ZM210.416 78.64V76.64H208.416V78.64H210.416ZM210.416 106V108H212.416V106H210.416ZM201.68 106H199.68V108H201.68V106ZM201.68 39.088V37.088H199.68V39.088H201.68ZM236.048 41.68L235.153 43.4689L235.16 43.4721L235.166 43.4753L236.048 41.68ZM242.48 70.96L240.89 69.7462L240.883 69.7554L240.876 69.7647L242.48 70.96ZM230.576 77.968L230.152 76.0134L227.427 76.6044L228.86 78.9961L230.576 77.968ZM247.376 106V108H250.906L249.091 104.972L247.376 106ZM210.416 71.632H208.416V73.632H210.416V71.632ZM233.936 68.176L235.33 69.6094L235.34 69.5999L235.35 69.5902L233.936 68.176ZM233.936 49.552L232.562 51.006L232.572 51.0154L232.582 51.0247L233.936 49.552ZM210.416 46.288V44.288H208.416V46.288H210.416ZM236.912 106L238.64 104.993L222.704 77.6334L220.976 78.64L219.247 79.6466L235.183 107.007L236.912 106ZM220.976 78.64V76.64H210.416V78.64V80.64H220.976V78.64ZM210.416 78.64H208.416V106H210.416H212.416V78.64H210.416ZM210.416 106V104H201.68V106V108H210.416V106ZM201.68 106H203.68V39.088H201.68H199.68V106H201.68ZM201.68 39.088V41.088H223.28V39.088V37.088H201.68V39.088ZM223.28 39.088V41.088C228.117 41.088 232.047 41.9158 235.153 43.4689L236.048 41.68L236.942 39.8911C233.136 37.9882 228.554 37.088 223.28 37.088V39.088ZM236.048 41.68L235.166 43.4753C238.388 45.057 240.693 47.1426 242.195 49.7004L243.92 48.688L245.644 47.6756C243.69 44.3454 240.747 41.759 236.929 39.8847L236.048 41.68ZM243.92 48.688L242.195 49.7004C243.724 52.3056 244.512 55.3091 244.512 58.768H246.512H248.512C248.512 54.6749 247.571 50.9584 245.644 47.6756L243.92 48.688ZM246.512 58.768H244.512C244.512 62.9564 243.3 66.5897 240.89 69.7462L242.48 70.96L244.069 72.1738C247.035 68.2903 248.512 63.7956 248.512 58.768H246.512ZM242.48 70.96L240.876 69.7647C238.605 72.8114 235.108 74.9385 230.152 76.0134L230.576 77.968L230.999 79.9226C236.667 78.6935 241.106 76.1486 244.083 72.1553L242.48 70.96ZM230.576 77.968L228.86 78.9961L245.66 107.028L247.376 106L249.091 104.972L232.291 76.9399L230.576 77.968ZM247.376 106V104H236.912V106V108H247.376V106ZM210.416 71.632V73.632H223.28V71.632V69.632H210.416V71.632ZM223.28 71.632V73.632C228.31 73.632 232.453 72.4087 235.33 69.6094L233.936 68.176L232.541 66.7425C230.682 68.5513 227.721 69.632 223.28 69.632V71.632ZM233.936 68.176L235.35 69.5902C238.155 66.7849 239.488 63.1075 239.488 58.768H237.488H235.488C235.488 62.2365 234.452 64.8311 232.521 66.7618L233.936 68.176ZM237.488 58.768H239.488C239.488 54.381 238.162 50.7199 235.289 48.0793L233.936 49.552L232.582 51.0247C234.445 52.7361 235.488 55.219 235.488 58.768H237.488ZM233.936 49.552L235.309 48.098C232.482 45.4279 228.334 44.288 223.28 44.288V46.288V48.288C227.825 48.288 230.781 49.3241 232.562 51.006L233.936 49.552ZM223.28 46.288V44.288H210.416V46.288V48.288H223.28V46.288ZM210.416 46.288H208.416V71.632H210.416H212.416V46.288H210.416ZM290.038 91.12L291.919 90.4404L291.442 89.12H290.038V91.12ZM260.854 91.12V89.12H259.45L258.973 90.4404L260.854 91.12ZM255.478 106V108H256.882L257.359 106.68L255.478 106ZM246.262 106L244.382 105.317L243.406 108H246.262V106ZM270.454 39.472V37.472H269.053L268.574 38.7885L270.454 39.472ZM280.534 39.472L282.414 38.7909L281.937 37.472H280.534V39.472ZM304.63 106V108H307.481L306.51 105.319L304.63 106ZM295.414 106L293.533 106.68L294.01 108H295.414V106ZM287.542 84.016V86.016H290.382L289.425 83.342L287.542 84.016ZM275.446 50.224L277.329 49.55L275.446 44.2895L273.563 49.55L275.446 50.224ZM263.35 84.016L261.467 83.342L260.51 86.016H263.35V84.016ZM290.038 91.12V89.12H260.854V91.12V93.12H290.038V91.12ZM260.854 91.12L258.973 90.4404L253.597 105.32L255.478 106L257.359 106.68L262.735 91.7996L260.854 91.12ZM255.478 106V104H246.262V106V108H255.478V106ZM246.262 106L248.141 106.683L272.333 40.1555L270.454 39.472L268.574 38.7885L244.382 105.317L246.262 106ZM270.454 39.472V41.472H280.534V39.472V37.472H270.454V39.472ZM280.534 39.472L278.653 40.1531L302.749 106.681L304.63 106L306.51 105.319L282.414 38.7909L280.534 39.472ZM304.63 106V104H295.414V106V108H304.63V106ZM295.414 106L297.295 105.32L291.919 90.4404L290.038 91.12L288.157 91.7996L293.533 106.68L295.414 106ZM287.542 84.016L289.425 83.342L277.329 49.55L275.446 50.224L273.563 50.898L285.659 84.69L287.542 84.016ZM275.446 50.224L273.563 49.55L261.467 83.342L263.35 84.016L265.233 84.69L277.329 50.898L275.446 50.224ZM263.35 84.016V86.016H287.542V84.016V82.016H263.35V84.016ZM343.397 39.088H345.397V37.088H343.397V39.088ZM343.397 46.192V48.192H345.397V46.192H343.397ZM314.309 46.192V44.192H312.309V46.192H314.309ZM314.309 68.752H312.309V70.752H314.309V68.752ZM337.925 68.752H339.925V66.752H337.925V68.752ZM337.925 75.856V77.856H339.925V75.856H337.925ZM314.309 75.856V73.856H312.309V75.856H314.309ZM314.309 106V108H316.309V106H314.309ZM305.573 106H303.573V108H305.573V106ZM305.573 39.088V37.088H303.573V39.088H305.573ZM343.397 39.088H341.397V46.192H343.397H345.397V39.088H343.397ZM343.397 46.192V44.192H314.309V46.192V48.192H343.397V46.192ZM314.309 46.192H312.309V68.752H314.309H316.309V46.192H314.309ZM314.309 68.752V70.752H337.925V68.752V66.752H314.309V68.752ZM337.925 68.752H335.925V75.856H337.925H339.925V68.752H337.925ZM337.925 75.856V73.856H314.309V75.856V77.856H337.925V75.856ZM314.309 75.856H312.309V106H314.309H316.309V75.856H314.309ZM314.309 106V104H305.573V106V108H314.309V106ZM305.573 106H307.573V39.088H305.573H303.573V106H305.573ZM305.573 39.088V41.088H343.397V39.088V37.088H305.573V39.088ZM353.084 39.088H355.084V37.088H353.084V39.088ZM353.084 106V108H355.084V106H353.084ZM344.348 106H342.348V108H344.348V106ZM344.348 39.088V37.088H342.348V39.088H344.348ZM353.084 39.088H351.084V106H353.084H355.084V39.088H353.084ZM353.084 106V104H344.348V106V108H353.084V106ZM344.348 106H346.348V39.088H344.348H342.348V106H344.348ZM344.348 39.088V41.088H353.084V39.088V37.088H344.348V39.088ZM397.925 91.12L399.806 90.4404L399.329 89.12H397.925V91.12ZM368.741 91.12V89.12H367.337L366.86 90.4404L368.741 91.12ZM363.365 106V108H364.769L365.246 106.68L363.365 106ZM354.149 106L352.27 105.317L351.294 108H354.149V106ZM378.341 39.472V37.472H376.94L376.462 38.7885L378.341 39.472ZM388.421 39.472L390.302 38.7909L389.824 37.472H388.421V39.472ZM412.517 106V108H415.369L414.398 105.319L412.517 106ZM403.301 106L401.42 106.68L401.897 108H403.301V106ZM395.429 84.016V86.016H398.269L397.312 83.342L395.429 84.016ZM383.333 50.224L385.216 49.55L383.333 44.2895L381.45 49.55L383.333 50.224ZM371.237 84.016L369.354 83.342L368.397 86.016H371.237V84.016ZM397.925 91.12V89.12H368.741V91.12V93.12H397.925V91.12ZM368.741 91.12L366.86 90.4404L361.484 105.32L363.365 106L365.246 106.68L370.622 91.7996L368.741 91.12ZM363.365 106V104H354.149V106V108H363.365V106ZM354.149 106L356.029 106.683L380.221 40.1555L378.341 39.472L376.462 38.7885L352.27 105.317L354.149 106ZM378.341 39.472V41.472H388.421V39.472V37.472H378.341V39.472ZM388.421 39.472L386.541 40.1531L410.637 106.681L412.517 106L414.398 105.319L390.302 38.7909L388.421 39.472ZM412.517 106V104H403.301V106V108H412.517V106ZM403.301 106L405.182 105.32L399.806 90.4404L397.925 91.12L396.044 91.7996L401.42 106.68L403.301 106ZM395.429 84.016L397.312 83.342L385.216 49.55L383.333 50.224L381.45 50.898L393.546 84.69L395.429 84.016ZM383.333 50.224L381.45 49.55L369.354 83.342L371.237 84.016L373.12 84.69L385.216 50.898L383.333 50.224ZM371.237 84.016V86.016H395.429V84.016V82.016H371.237V84.016Z" fill="#EAA200" mask="url(#path-1-outside-1_19_16)"/>
</g>
<defs>
<filter id="filter0_d_19_16" x="0.392001" y="32.32" width="419.977" height="82.352" filterUnits="userSpaceOnUse" color-interpolation-filters="sRGB">
<feFlood flood-opacity="0" result="BackgroundImageFix"/>
<feColorMatrix in="SourceAlpha" type="matrix" values="0 0 0 0 0 0 0 0 0 0 0 0 0 0 0 0 0 0 127 0" result="hardAlpha"/>
<feOffset dy="1"/>
<feGaussianBlur stdDeviation="2.5"/>
<feComposite in2="hardAlpha" operator="out"/>
<feColorMatrix type="matrix" values="0 0 0 0 0.94902 0 0 0 0 0.717647 0 0 0 0 0.0196078 0 0 0 0.7 0"/>
<feBlend mode="normal" in2="BackgroundImageFix" result="effect1_dropShadow_19_16"/>
<feBlend mode="normal" in="SourceGraphic" in2="effect1_dropShadow_19_16" result="shape"/>
</filter>
</defs>
</svg>
