<svg width="366" height="100" viewBox="0 0 366 100" fill="none" xmlns="http://www.w3.org/2000/svg">
<path d="M78.639 51.732H71.367V59.184H67.551V51.732H60.279V48.276H67.551V40.824H71.367V48.276H78.639V51.732ZM99.5862 40.284H87.5262V47.448C88.0302 46.776 88.7742 46.212 89.7582 45.756C90.7662 45.3 91.8342 45.072 92.9622 45.072C94.9782 45.072 96.6102 45.504 97.8582 46.368C99.1302 47.232 100.03 48.324 100.558 49.644C101.11 50.964 101.386 52.356 101.386 53.82C101.386 55.596 101.038 57.18 100.342 58.572C99.6702 59.94 98.6502 61.02 97.2822 61.812C95.9382 62.604 94.2822 63 92.3142 63C89.6982 63 87.5982 62.352 86.0142 61.056C84.4302 59.76 83.4822 58.044 83.1702 55.908H87.1662C87.4302 57.036 88.0182 57.936 88.9302 58.608C89.8422 59.256 90.9822 59.58 92.3502 59.58C94.0542 59.58 95.3262 59.064 96.1662 58.032C97.0302 57 97.4622 55.632 97.4622 53.928C97.4622 52.2 97.0302 50.88 96.1662 49.968C95.3022 49.032 94.0302 48.564 92.3502 48.564C91.1742 48.564 90.1782 48.864 89.3622 49.464C88.5702 50.04 87.9942 50.832 87.6342 51.84H83.7462V36.684H99.5862V40.284ZM120.778 40.284H108.718V47.448C109.222 46.776 109.966 46.212 110.95 45.756C111.958 45.3 113.026 45.072 114.154 45.072C116.17 45.072 117.802 45.504 119.05 46.368C120.322 47.232 121.222 48.324 121.75 49.644C122.302 50.964 122.578 52.356 122.578 53.82C122.578 55.596 122.23 57.18 121.534 58.572C120.862 59.94 119.842 61.02 118.474 61.812C117.13 62.604 115.474 63 113.506 63C110.89 63 108.79 62.352 107.206 61.056C105.622 59.76 104.674 58.044 104.362 55.908H108.358C108.622 57.036 109.21 57.936 110.122 58.608C111.034 59.256 112.174 59.58 113.542 59.58C115.246 59.58 116.518 59.064 117.358 58.032C118.222 57 118.654 55.632 118.654 53.928C118.654 52.2 118.222 50.88 117.358 49.968C116.494 49.032 115.222 48.564 113.542 48.564C112.366 48.564 111.37 48.864 110.554 49.464C109.762 50.04 109.186 50.832 108.826 51.84H104.938V36.684H120.778V40.284ZM149.522 40.284H137.462V47.448C137.966 46.776 138.71 46.212 139.694 45.756C140.702 45.3 141.77 45.072 142.898 45.072C144.914 45.072 146.546 45.504 147.794 46.368C149.066 47.232 149.966 48.324 150.494 49.644C151.046 50.964 151.322 52.356 151.322 53.82C151.322 55.596 150.974 57.18 150.278 58.572C149.606 59.94 148.586 61.02 147.218 61.812C145.874 62.604 144.218 63 142.25 63C139.634 63 137.534 62.352 135.95 61.056C134.366 59.76 133.418 58.044 133.106 55.908H137.102C137.366 57.036 137.954 57.936 138.866 58.608C139.778 59.256 140.918 59.58 142.286 59.58C143.99 59.58 145.262 59.064 146.102 58.032C146.966 57 147.398 55.632 147.398 53.928C147.398 52.2 146.966 50.88 146.102 49.968C145.238 49.032 143.966 48.564 142.286 48.564C141.11 48.564 140.114 48.864 139.298 49.464C138.506 50.04 137.93 50.832 137.57 51.84H133.682V36.684H149.522V40.284ZM153.722 43.236C153.866 41.004 154.718 39.264 156.278 38.016C157.862 36.768 159.878 36.144 162.326 36.144C164.006 36.144 165.458 36.444 166.682 37.044C167.906 37.644 168.83 38.46 169.454 39.492C170.078 40.524 170.39 41.688 170.39 42.984C170.39 44.472 169.994 45.744 169.202 46.8C168.41 47.856 167.462 48.564 166.358 48.924V49.068C167.774 49.5 168.878 50.292 169.67 51.444C170.462 52.572 170.858 54.024 170.858 55.8C170.858 57.216 170.534 58.476 169.886 59.58C169.238 60.684 168.278 61.56 167.006 62.208C165.734 62.832 164.21 63.144 162.434 63.144C159.842 63.144 157.706 62.484 156.026 61.164C154.37 59.82 153.482 57.9 153.362 55.404H157.322C157.418 56.676 157.91 57.72 158.798 58.536C159.686 59.328 160.886 59.724 162.398 59.724C163.862 59.724 164.99 59.328 165.782 58.536C166.574 57.72 166.97 56.676 166.97 55.404C166.97 53.724 166.43 52.536 165.35 51.84C164.294 51.12 162.662 50.76 160.454 50.76H159.518V47.376H160.49C162.434 47.352 163.91 47.028 164.918 46.404C165.95 45.78 166.466 44.796 166.466 43.452C166.466 42.3 166.094 41.388 165.35 40.716C164.606 40.02 163.55 39.672 162.182 39.672C160.838 39.672 159.794 40.02 159.05 40.716C158.306 41.388 157.862 42.228 157.718 43.236H153.722ZM186.033 55.872C186.273 57.072 186.789 57.984 187.581 58.608C188.373 59.232 189.441 59.544 190.785 59.544C192.489 59.544 193.737 58.872 194.529 57.528C195.321 56.184 195.717 53.892 195.717 50.652C195.141 51.468 194.325 52.104 193.269 52.56C192.237 52.992 191.109 53.208 189.885 53.208C188.325 53.208 186.909 52.896 185.637 52.272C184.365 51.624 183.357 50.676 182.613 49.428C181.893 48.156 181.533 46.62 181.533 44.82C181.533 42.18 182.301 40.08 183.837 38.52C185.397 36.936 187.533 36.144 190.245 36.144C193.509 36.144 195.825 37.236 197.193 39.42C198.585 41.58 199.281 44.904 199.281 49.392C199.281 52.488 199.017 55.02 198.489 56.988C197.985 58.956 197.097 60.444 195.825 61.452C194.553 62.46 192.789 62.964 190.533 62.964C187.965 62.964 185.985 62.292 184.593 60.948C183.201 59.604 182.421 57.912 182.253 55.872H186.033ZM190.605 49.752C192.045 49.752 193.173 49.308 193.989 48.42C194.829 47.508 195.249 46.308 195.249 44.82C195.249 43.164 194.805 41.88 193.917 40.968C193.053 40.032 191.865 39.564 190.353 39.564C188.841 39.564 187.641 40.044 186.753 41.004C185.889 41.94 185.457 43.176 185.457 44.712C185.457 46.176 185.877 47.388 186.717 48.348C187.581 49.284 188.877 49.752 190.605 49.752ZM206.401 49.284C203.905 48.036 202.657 46.068 202.657 43.38C202.657 42.084 202.981 40.896 203.629 39.816C204.277 38.736 205.249 37.884 206.545 37.26C207.841 36.612 209.425 36.288 211.297 36.288C213.145 36.288 214.717 36.612 216.013 37.26C217.333 37.884 218.316 38.736 218.965 39.816C219.613 40.896 219.937 42.084 219.937 43.38C219.937 44.724 219.589 45.912 218.893 46.944C218.221 47.952 217.321 48.732 216.193 49.284C217.561 49.788 218.641 50.616 219.433 51.768C220.225 52.896 220.621 54.228 220.621 55.764C220.621 57.324 220.225 58.704 219.433 59.904C218.641 61.104 217.537 62.028 216.121 62.676C214.705 63.324 213.097 63.648 211.297 63.648C209.497 63.648 207.889 63.324 206.473 62.676C205.081 62.028 203.989 61.104 203.197 59.904C202.405 58.704 202.009 57.324 202.009 55.764C202.009 54.204 202.405 52.86 203.197 51.732C203.989 50.604 205.057 49.788 206.401 49.284ZM216.013 43.884C216.013 42.54 215.593 41.508 214.753 40.788C213.913 40.068 212.761 39.708 211.297 39.708C209.857 39.708 208.717 40.068 207.877 40.788C207.037 41.508 206.617 42.552 206.617 43.92C206.617 45.12 207.049 46.104 207.913 46.872C208.801 47.616 209.929 47.988 211.297 47.988C212.665 47.988 213.793 47.604 214.681 46.836C215.569 46.068 216.013 45.084 216.013 43.884ZM211.297 51.084C209.713 51.084 208.417 51.48 207.409 52.272C206.425 53.04 205.933 54.156 205.933 55.62C205.933 56.988 206.413 58.104 207.373 58.968C208.333 59.808 209.641 60.228 211.297 60.228C212.929 60.228 214.213 59.796 215.149 58.932C216.109 58.068 216.589 56.964 216.589 55.62C216.589 54.18 216.097 53.064 215.113 52.272C214.153 51.48 212.881 51.084 211.297 51.084ZM222.59 40.5V36.756H230.078V63H225.938V40.5H222.59ZM233.375 40.5V36.756H240.863V63H236.723V40.5H233.375ZM244.701 49.536C244.701 45.384 245.397 42.144 246.789 39.816C248.205 37.464 250.629 36.288 254.061 36.288C257.493 36.288 259.905 37.464 261.297 39.816C262.713 42.144 263.421 45.384 263.421 49.536C263.421 53.736 262.713 57.024 261.297 59.4C259.905 61.752 257.493 62.928 254.061 62.928C250.629 62.928 248.205 61.752 246.789 59.4C245.397 57.024 244.701 53.736 244.701 49.536ZM259.389 49.536C259.389 47.592 259.257 45.948 258.993 44.604C258.753 43.26 258.249 42.168 257.481 41.328C256.713 40.464 255.573 40.032 254.061 40.032C252.549 40.032 251.409 40.464 250.641 41.328C249.873 42.168 249.357 43.26 249.093 44.604C248.853 45.948 248.733 47.592 248.733 49.536C248.733 51.552 248.853 53.244 249.093 54.612C249.333 55.98 249.837 57.084 250.605 57.924C251.397 58.764 252.549 59.184 254.061 59.184C255.573 59.184 256.713 58.764 257.481 57.924C258.273 57.084 258.789 55.98 259.029 54.612C259.269 53.244 259.389 51.552 259.389 49.536ZM281.732 48.24V51.696H266.936V48.24H281.732ZM284.683 40.5V36.756H292.171V63H288.031V40.5H284.683ZM295.936 43.236C296.08 41.004 296.932 39.264 298.492 38.016C300.076 36.768 302.092 36.144 304.54 36.144C306.22 36.144 307.672 36.444 308.896 37.044C310.12 37.644 311.044 38.46 311.668 39.492C312.292 40.524 312.604 41.688 312.604 42.984C312.604 44.472 312.208 45.744 311.416 46.8C310.624 47.856 309.676 48.564 308.572 48.924V49.068C309.988 49.5 311.092 50.292 311.884 51.444C312.676 52.572 313.072 54.024 313.072 55.8C313.072 57.216 312.748 58.476 312.1 59.58C311.452 60.684 310.492 61.56 309.22 62.208C307.948 62.832 306.424 63.144 304.648 63.144C302.056 63.144 299.92 62.484 298.24 61.164C296.584 59.82 295.696 57.9 295.576 55.404H299.536C299.632 56.676 300.124 57.72 301.012 58.536C301.9 59.328 303.1 59.724 304.612 59.724C306.076 59.724 307.204 59.328 307.996 58.536C308.788 57.72 309.184 56.676 309.184 55.404C309.184 53.724 308.644 52.536 307.564 51.84C306.508 51.12 304.876 50.76 302.668 50.76H301.732V47.376H302.704C304.648 47.352 306.124 47.028 307.132 46.404C308.164 45.78 308.68 44.796 308.68 43.452C308.68 42.3 308.308 41.388 307.564 40.716C306.82 40.02 305.764 39.672 304.396 39.672C303.052 39.672 302.008 40.02 301.264 40.716C300.52 41.388 300.076 42.228 299.932 43.236H295.936ZM317.851 57.42C320.155 55.428 321.967 53.796 323.287 52.524C324.631 51.228 325.747 49.884 326.635 48.492C327.523 47.1 327.967 45.708 327.967 44.316C327.967 42.876 327.619 41.748 326.923 40.932C326.251 40.116 325.183 39.708 323.719 39.708C322.303 39.708 321.199 40.164 320.407 41.076C319.639 41.964 319.231 43.164 319.183 44.676H315.223C315.295 41.94 316.111 39.852 317.671 38.412C319.255 36.948 321.259 36.216 323.683 36.216C326.299 36.216 328.339 36.936 329.803 38.376C331.291 39.816 332.035 41.736 332.035 44.136C332.035 45.864 331.591 47.532 330.703 49.14C329.839 50.724 328.795 52.152 327.571 53.424C326.371 54.672 324.835 56.124 322.963 57.78L321.343 59.22H332.755V62.64H315.259V59.652L317.851 57.42ZM351.481 40.284H339.421V47.448C339.925 46.776 340.669 46.212 341.653 45.756C342.661 45.3 343.729 45.072 344.857 45.072C346.873 45.072 348.505 45.504 349.753 46.368C351.025 47.232 351.925 48.324 352.453 49.644C353.005 50.964 353.281 52.356 353.281 53.82C353.281 55.596 352.933 57.18 352.237 58.572C351.565 59.94 350.545 61.02 349.177 61.812C347.833 62.604 346.177 63 344.209 63C341.593 63 339.493 62.352 337.909 61.056C336.325 59.76 335.377 58.044 335.065 55.908H339.061C339.325 57.036 339.913 57.936 340.825 58.608C341.737 59.256 342.877 59.58 344.245 59.58C345.949 59.58 347.221 59.064 348.061 58.032C348.925 57 349.357 55.632 349.357 53.928C349.357 52.2 348.925 50.88 348.061 49.968C347.197 49.032 345.925 48.564 344.245 48.564C343.069 48.564 342.073 48.864 341.257 49.464C340.465 50.04 339.889 50.832 339.529 51.84H335.641V36.684H351.481V40.284Z" fill="#F3F3F3"/>
<path d="M56.607 66.6H355.405V68.4H56.607V66.6Z" fill="#F3F3F3"/>
<path d="M41.5625 68.75C37.2222 68.75 32.934 67.8038 28.6979 65.9115C24.4618 64.0191 20.6076 61.3368 17.1354 57.8646C13.6632 54.3924 10.9809 50.5382 9.08854 46.3021C7.19618 42.066 6.25 37.7778 6.25 33.4375C6.25 32.8125 6.45833 32.2917 6.875 31.875C7.29167 31.4583 7.8125 31.25 8.4375 31.25H16.875C17.3611 31.25 17.7951 31.4149 18.1771 31.7448C18.559 32.0747 18.7847 32.4653 18.8542 32.9167L20.2083 40.2083C20.2778 40.7639 20.2604 41.2326 20.1562 41.6146C20.0521 41.9965 19.8611 42.3264 19.5833 42.6042L14.5312 47.7083C15.2257 48.9931 16.0503 50.2344 17.0052 51.4323C17.9601 52.6302 19.0104 53.7847 20.1562 54.8958C21.2326 55.9722 22.3611 56.9705 23.5417 57.8906C24.7222 58.8108 25.9722 59.6528 27.2917 60.4167L32.1875 55.5208C32.5 55.2083 32.908 54.974 33.4115 54.8177C33.9149 54.6615 34.4097 54.6181 34.8958 54.6875L42.0833 56.1458C42.5694 56.2847 42.9687 56.5365 43.2812 56.901C43.5937 57.2656 43.75 57.6736 43.75 58.125V66.5625C43.75 67.1875 43.5417 67.7083 43.125 68.125C42.7083 68.5417 42.1875 68.75 41.5625 68.75ZM12.5521 43.75L15.9896 40.3125L15.1042 35.4167H10.4687C10.6424 36.8403 10.8854 38.2465 11.1979 39.6354C11.5104 41.0243 11.9618 42.3958 12.5521 43.75ZM31.1979 62.3958C32.5521 62.9861 33.9323 63.4549 35.3385 63.8021C36.7448 64.1493 38.1597 64.375 39.5833 64.4792V59.8958L34.6875 58.9062L31.1979 62.3958Z" fill="#F3F3F3"/>
</svg>
