<svg width="524" height="119" viewBox="0 0 524 119" fill="none" xmlns="http://www.w3.org/2000/svg">
<g filter="url(#filter0_d_71_10)">
<path d="M372.623 5.5686L371.743 7.07349L358.097 30.385L357.807 30.8792H299.75C298.367 30.8792 296.989 31.0597 295.652 31.4163L295.27 31.5188C294.197 31.8049 293.166 32.2287 292.202 32.7795L292.054 32.8635C290.674 33.6521 289.45 34.7251 288.479 35.9875C287.728 36.9632 287.125 38.0622 286.712 39.219C286.258 40.4899 286.027 41.8295 286.027 43.179V48.0637C286.027 49.9921 286.431 51.8992 287.214 53.6614C287.831 55.0492 288.69 56.3431 289.725 57.4583C290.951 58.7789 292.436 59.8701 294.064 60.636L294.285 60.7395C295.513 61.3173 296.811 61.7302 298.148 61.9661L298.92 62.1018C300.137 62.3166 301.371 62.425 302.607 62.425H342.872V60.8215L306.632 35.8196L303.991 33.9963H368.184V111.9H366.217L365.928 111.626L340.064 87.1672H306.016C300.303 87.1672 294.61 86.4902 289.056 85.1497L289.008 85.1379L288.962 85.1213L285.779 84.0149C283.483 83.2165 281.276 82.1833 279.192 80.9329C277.385 79.8485 275.677 78.6049 274.091 77.217L271.86 75.2639L271.821 75.2297L271.786 75.1926L268.09 71.2122L268.054 71.1741L268.023 71.1321L266.017 68.4573C265.05 67.168 264.185 65.8054 263.431 64.3811C262.426 62.4831 261.623 60.4851 261.033 58.4202L260.918 58.0208C260.029 54.9094 259.579 51.6892 259.579 48.4534V45.6272L259.591 44.4436C259.651 41.6812 259.918 38.9267 260.392 36.2034L260.731 34.2571L260.739 34.2102L260.75 34.1653C261.908 29.9194 263.744 25.8877 266.185 22.2258L266.569 21.6497L266.607 21.593L266.652 21.5422C269.528 18.2821 272.692 15.2871 276.105 12.593L276.447 12.3225L276.497 12.2825L276.552 12.2493C280.408 9.93589 284.595 8.22668 288.968 7.18091L289.927 6.95142C293.77 6.0325 297.708 5.5686 301.659 5.5686H372.623Z" fill="#191919" fill-opacity="0.65" stroke="#EAA200" stroke-width="2"/>
<path d="M212.993 5.5686L214.571 5.57544C222.483 5.64867 230.637 6.34096 237.964 9.73267C246.871 13.8557 252.004 19.6125 256.471 28.7141C258.955 33.7754 259.873 39.3939 259.873 44.9417C259.873 48.7942 259.421 52.6932 258.203 56.4084C254.1 68.9234 248.842 75.6185 240.842 80.303C231.452 85.8011 220.231 86.5989 209.623 86.5989H193.368C183.432 86.5989 173.035 85.7926 164.063 81.0012C159.276 78.4452 155.512 75.396 152.462 71.4221C149.418 67.456 147.118 62.6112 145.201 56.5081C144.01 52.7142 143.592 48.7551 143.592 44.8411C143.592 39.7391 144.301 34.5729 146.291 29.7864C148.9 23.5112 151.805 18.8084 155.547 15.2405C159.297 11.6656 163.826 9.28793 169.593 7.5686C175.327 5.85903 181.333 5.56862 187.187 5.5686H212.993ZM196.656 30.595C191.457 30.595 185.795 30.7501 181.01 32.0803C176.246 33.4045 172.521 35.8416 170.905 40.304C169.884 43.1235 169.664 46.2135 170.261 49.1936C171.369 54.731 175.522 57.8985 181.129 59.6985C186.756 61.5047 193.644 61.8567 199.788 61.8567C207.517 61.8567 216.659 61.1239 223.734 58.5168C227.267 57.2151 230.212 55.4726 232.219 53.1877C234.203 50.9286 235.313 48.0934 235.125 44.4788C234.973 41.553 233.981 38.7628 232.298 36.4338C230.239 33.5838 227.162 32.1098 223.556 31.3567C219.931 30.5997 215.893 30.595 212.016 30.595H196.656Z" fill="#191919" fill-opacity="0.65" stroke="#EAA200" stroke-width="2"/>
<path d="M399.171 5.5686V84.887L398.864 85.1819L375.838 107.356L375.547 107.635H373.291V5.5686H399.171Z" fill="#191919" fill-opacity="0.65" stroke="#EAA200" stroke-width="2"/>
<path d="M105.421 5L105.48 5.00684L109.219 5.45605C111.515 5.73161 113.785 6.19524 116.005 6.84277C118.435 7.55148 120.797 8.47743 123.061 9.60938L125.424 10.791L125.474 10.8164L125.52 10.8457L130.353 13.9727L130.4 14.0039L130.445 14.041L132.005 15.3252C134.248 17.1727 136.22 19.328 137.861 21.7266C138.757 23.0353 139.55 24.4113 140.234 25.8418L140.986 27.4131C141.936 29.3991 142.662 31.4851 143.149 33.6318C143.639 35.7866 143.887 37.9895 143.887 40.1992V45.9307C143.887 47.7955 143.716 49.6566 143.376 51.4902C142.741 54.9177 141.524 58.2109 139.777 61.2275L139.203 62.2197L139.195 62.2324L139.188 62.2451L137.359 65.1992C136.082 67.2623 134.6 69.191 132.934 70.9551C131.294 72.6911 129.485 74.2587 127.534 75.6357L125.554 77.0342L125.537 77.0449L125.521 77.0557L123.139 78.6045C120.891 80.0657 118.514 81.3203 116.039 82.3516C113.869 83.2557 111.631 83.9856 109.345 84.5342L105.595 85.4336L105.555 85.4434L105.514 85.4502C100.543 86.2149 95.5204 86.5986 90.4912 86.5986H29.5957L29.9102 85.3535L42.9873 33.6143L43.1777 32.8594H69.123L68.8047 34.1064L61.7314 61.8564H92.3438C94.5067 61.8564 96.6652 61.6429 98.7861 61.2188L99.0254 61.1709C101.33 60.71 103.574 59.9852 105.714 59.0127L106.245 58.7715C107.778 58.0745 109.238 57.224 110.6 56.2334L112.404 54.9209C113.831 53.8836 115.041 52.5786 115.97 51.0791C117.301 48.9282 118.007 46.4486 118.007 43.9189V41.8486C118.007 40.1404 117.56 38.4617 116.713 36.9785C116.202 36.0852 115.554 35.2771 114.793 34.585L114.298 34.1348C113.452 33.3655 112.512 32.7015 111.505 32.1592C110.226 31.4704 108.846 30.9815 107.418 30.7139L106.878 30.6133C105.807 30.4125 104.719 30.3105 103.63 30.3105H40.8105L40.5586 30.1436L6.44531 7.40039L6 7.10352V5H105.421Z" fill="#191919" fill-opacity="0.65" stroke="#EAA200" stroke-width="2"/>
<path d="M518 5.5686V8.14868L517.672 8.44653L493.223 30.6204L492.938 30.8792H429.873V33.9963H498.51L496.643 35.7297L472.764 57.9036L472.476 58.1702H429.873V62.425H511.746V64.9875L511.439 65.2825L488.697 87.1721L488.406 87.4514H402.856V5.5686H518Z" fill="#191919" fill-opacity="0.65" stroke="#EAA200" stroke-width="2"/>
</g>
<defs>
<filter id="filter0_d_71_10" x="0" y="0" width="524" height="118.9" filterUnits="userSpaceOnUse" color-interpolation-filters="sRGB">
<feFlood flood-opacity="0" result="BackgroundImageFix"/>
<feColorMatrix in="SourceAlpha" type="matrix" values="0 0 0 0 0 0 0 0 0 0 0 0 0 0 0 0 0 0 127 0" result="hardAlpha"/>
<feOffset dy="1"/>
<feGaussianBlur stdDeviation="2.5"/>
<feComposite in2="hardAlpha" operator="out"/>
<feColorMatrix type="matrix" values="0 0 0 0 0.94902 0 0 0 0 0.717647 0 0 0 0 0.0196078 0 0 0 0.7 0"/>
<feBlend mode="normal" in2="BackgroundImageFix" result="effect1_dropShadow_71_10"/>
<feBlend mode="normal" in="SourceGraphic" in2="effect1_dropShadow_71_10" result="shape"/>
</filter>
</defs>
</svg>
